<mxfile host="app.diagrams.net" agent="Mozilla/5.0 (X11; Linux x86_64; rv:139.0) Gecko/20100101 Firefox/139.0" version="28.0.7">
  <diagram name="第 1 页" id="RCNppKnY1Qoo2MaenCiS">
    <mxGraphModel dx="3112" dy="3766" grid="1" gridSize="10" guides="1" tooltips="1" connect="1" arrows="1" fold="1" page="1" pageScale="1" pageWidth="827" pageHeight="1169" math="0" shadow="0">
      <root>
        <UserObject label="" animation="show Oeyfec6gX6lL5wna3G6M-4&#xa;wait 1000&#xa;flow Oeyfec6gX6lL5wna3G6M-1&#xa;wait 1000&#xa;flow Oeyfec6gX6lL5wna3G6M-2&#xa;wait 1000&#xa;" id="0">
          <mxCell />
        </UserObject>
        <mxCell id="1" parent="0" />
        <mxCell id="EpmGPzOIkWGxl7WI5x01-1" value="&lt;font style=&quot;font-size: 24px;&quot;&gt;&lt;b&gt;#模板 - 活动列表（右键头调整列表顺序）&lt;/b&gt;&lt;/font&gt;" style="swimlane;fontStyle=0;childLayout=stackLayout;horizontal=1;startSize=40;fillColor=default;horizontalStack=0;resizeParent=1;resizeParentMax=0;resizeLast=0;collapsible=1;marginBottom=0;html=1;strokeColor=#808080;" parent="1" vertex="1">
          <mxGeometry x="-810" y="-1160" width="850" height="1280" as="geometry" />
        </mxCell>
        <mxCell id="EpmGPzOIkWGxl7WI5x01-2" value="&lt;div align=&quot;left&quot;&gt;&lt;font style=&quot;font-size: 16px;&quot;&gt;&lt;b&gt;## - 活动列表1（ 右键头调整列表顺序）&lt;/b&gt;&lt;/font&gt;&lt;/div&gt;" style="swimlane;fontStyle=0;childLayout=stackLayout;horizontal=1;startSize=40;fillColor=#EEEEEE;horizontalStack=0;resizeParent=1;resizeParentMax=0;resizeLast=0;collapsible=1;marginBottom=0;html=1;strokeColor=#808080;align=left;spacingLeft=24;" parent="EpmGPzOIkWGxl7WI5x01-1" vertex="1">
          <mxGeometry y="40" width="850" height="110" as="geometry">
            <mxRectangle x="930" y="420" width="850" height="40" as="alternateBounds" />
          </mxGeometry>
        </mxCell>
        <mxCell id="EpmGPzOIkWGxl7WI5x01-3" value="" style="text;align=left;verticalAlign=top;spacingLeft=16;spacingRight=4;overflow=hidden;rotatable=0;points=[[0,0.5],[1,0.5]];portConstraint=eastwest;whiteSpace=wrap;html=1;fontSize=14;fillColor=default;strokeColor=#808080;autosize=0;" parent="EpmGPzOIkWGxl7WI5x01-2" vertex="1">
          <mxGeometry y="40" width="850" height="70" as="geometry" />
        </mxCell>
        <mxCell id="EpmGPzOIkWGxl7WI5x01-4" value="&lt;div align=&quot;left&quot;&gt;&lt;font style=&quot;font-size: 16px;&quot;&gt;&lt;b&gt;## - 活动列表2（ 右键头调整列表顺序）&lt;/b&gt;&lt;/font&gt;&lt;/div&gt;" style="swimlane;fontStyle=0;childLayout=stackLayout;horizontal=1;startSize=40;fillColor=#EEEEEE;horizontalStack=0;resizeParent=1;resizeParentMax=0;resizeLast=0;collapsible=1;marginBottom=0;html=1;strokeColor=#808080;align=left;spacingLeft=24;verticalAlign=middle;fontFamily=Helvetica;fontSize=12;fontColor=default;" parent="EpmGPzOIkWGxl7WI5x01-1" vertex="1">
          <mxGeometry y="150" width="850" height="790" as="geometry">
            <mxRectangle x="930" y="420" width="850" height="40" as="alternateBounds" />
          </mxGeometry>
        </mxCell>
        <mxCell id="EpmGPzOIkWGxl7WI5x01-5" value="&lt;div&gt;&lt;span style=&quot;white-space: pre;&quot;&gt;&#x9;&lt;/span&gt;&lt;span style=&quot;white-space: pre;&quot;&gt;&#x9;&lt;/span&gt;&lt;span style=&quot;white-space: pre;&quot;&gt;&#x9;&lt;/span&gt;&lt;span style=&quot;white-space: pre;&quot;&gt;&#x9;&lt;/span&gt;&lt;span style=&quot;white-space: pre;&quot;&gt;&#x9;&lt;/span&gt;&lt;span style=&quot;white-space: pre;&quot;&gt;&#x9;&lt;/span&gt;&lt;span style=&quot;white-space: pre;&quot;&gt;&#x9;&lt;/span&gt;&lt;span style=&quot;white-space: pre;&quot;&gt;&#x9;&lt;/span&gt;&lt;span style=&quot;white-space: pre;&quot;&gt;&#x9;&lt;/span&gt;&lt;span style=&quot;white-space: pre;&quot;&gt;&#x9;&lt;/span&gt;&lt;span style=&quot;white-space: pre;&quot;&gt;&#x9;&lt;/span&gt;&lt;span style=&quot;white-space: pre;&quot;&gt;&#x9;&lt;/span&gt;&lt;span style=&quot;white-space: pre;&quot;&gt;&#x9;&lt;/span&gt;&lt;span style=&quot;white-space: pre;&quot;&gt;&#x9;&lt;/span&gt;&lt;span style=&quot;white-space: pre;&quot;&gt;&#x9;&lt;/span&gt;&lt;span style=&quot;white-space: pre;&quot;&gt;&#x9;&lt;/span&gt;&lt;span style=&quot;white-space: pre;&quot;&gt;&#x9;&lt;/span&gt;&lt;span style=&quot;white-space: pre;&quot;&gt;&#x9;&lt;/span&gt;&lt;span style=&quot;white-space: pre;&quot;&gt;&#x9;&lt;/span&gt;&lt;span style=&quot;white-space: pre;&quot;&gt;&#x9;&lt;/span&gt;&lt;span style=&quot;white-space: pre;&quot;&gt;&#x9;&lt;/span&gt;&lt;span style=&quot;white-space: pre;&quot;&gt;&#x9;&lt;/span&gt;&lt;span style=&quot;white-space: pre;&quot;&gt;&#x9;&lt;/span&gt;&lt;span style=&quot;white-space: pre;&quot;&gt;&#x9;&lt;/span&gt;&lt;span style=&quot;white-space: pre;&quot;&gt;&#x9;&lt;/span&gt;&lt;span style=&quot;white-space: pre;&quot;&gt;tab&lt;/span&gt;&lt;span style=&quot;white-space: pre;&quot;&gt;空格到这里，可以设定宽度&lt;/span&gt;&lt;/div&gt;&lt;div&gt;&lt;span style=&quot;white-space: pre;&quot;&gt;&lt;br&gt;&lt;/span&gt;&lt;/div&gt;&lt;div&gt;&lt;span style=&quot;white-space: pre;&quot;&gt;&lt;br&gt;&lt;/span&gt;&lt;/div&gt;&lt;div style=&quot;min-height: 3rem; padding: 0px 0px 0.5rem 1rem; min-width: 60%; background: rgb(245, 245, 245); border: 0px solid gray; border-radius: 8px;&quot;&gt;&lt;div style=&quot;margin-left: -1rem; color: gray; padding: 1rem; background: rgb(229, 229, 229); border-top-left-radius: inherit; border-top-right-radius: inherit;&quot;&gt; bash&lt;/div&gt;&lt;div style=&quot;background-color: rgb(245, 245, 245); color: rgb(8, 8, 8);&quot;&gt;&lt;pre style=&quot;font-family:&#39;JetBrains Mono&#39;,monospace;font-size:11.3pt;&quot;&gt;&lt;span style=&quot;color: rgb(140, 140, 140); font-style: italic;&quot;&gt;#从idea里复制内容过来&lt;/span&gt;&lt;/pre&gt;&lt;/div&gt;&lt;/div&gt;&lt;div&gt;&amp;nbsp; &amp;nbsp;&lt;/div&gt;&lt;div&gt;&lt;br&gt;&lt;/div&gt;&lt;div&gt;&lt;br&gt;&lt;br&gt;&lt;/div&gt;" style="text;align=left;verticalAlign=top;spacingLeft=16;spacingRight=4;overflow=hidden;rotatable=0;points=[[0,0.5],[1,0.5]];portConstraint=eastwest;whiteSpace=wrap;html=1;fontSize=12;fillColor=default;strokeColor=#808080;fontFamily=Helvetica;fontColor=default;fontStyle=0;horizontal=1;" parent="EpmGPzOIkWGxl7WI5x01-4" vertex="1">
          <mxGeometry y="40" width="850" height="250" as="geometry" />
        </mxCell>
        <mxCell id="EpmGPzOIkWGxl7WI5x01-6" value="&lt;div&gt;&lt;span style=&quot;white-space: pre;&quot;&gt;&#x9;&lt;/span&gt;&lt;span style=&quot;white-space: pre;&quot;&gt;&#x9;&lt;/span&gt;&lt;span style=&quot;white-space: pre;&quot;&gt;&#x9;                    &lt;span style=&quot;white-space: pre;&quot;&gt;&#x9;&lt;/span&gt;&lt;span style=&quot;white-space: pre;&quot;&gt;&#x9;&lt;/span&gt;&lt;span style=&quot;white-space: pre;&quot;&gt;&#x9;&lt;/span&gt;&lt;span style=&quot;white-space: pre;&quot;&gt;&#x9;&lt;/span&gt;&lt;span style=&quot;white-space: pre;&quot;&gt;&#x9;&lt;/span&gt;&lt;span style=&quot;white-space: pre;&quot;&gt;&#x9;&lt;/span&gt;&lt;span style=&quot;white-space: pre;&quot;&gt;&#x9;&lt;/span&gt;&lt;span style=&quot;white-space: pre;&quot;&gt;&#x9;&lt;/span&gt;&lt;span style=&quot;white-space: pre;&quot;&gt;&#x9;&lt;/span&gt;&lt;span style=&quot;white-space: pre;&quot;&gt;&#x9;&lt;/span&gt;&lt;span style=&quot;white-space: pre;&quot;&gt;&#x9;&lt;/span&gt;&lt;span style=&quot;white-space: pre;&quot;&gt;&#x9;&lt;/span&gt;&lt;span style=&quot;white-space: pre;&quot;&gt;&#x9;&lt;/span&gt;&lt;/span&gt;&lt;span style=&quot;white-space: pre;&quot;&gt;tab空格到这里，可以设定宽度&lt;/span&gt;&lt;/div&gt;&lt;div&gt;&lt;span style=&quot;white-space: pre;&quot;&gt;&lt;br&gt;&lt;/span&gt;&lt;/div&gt;&lt;div&gt;&lt;span style=&quot;white-space: pre;&quot;&gt;&lt;br&gt;&lt;/span&gt;&lt;/div&gt;&lt;div style=&quot;min-height: 3rem; padding: 0px 0px 0.5rem 1rem; min-width: 60%; background: rgb(245, 245, 245); border: 0px solid gray; border-radius: 8px;&quot;&gt;&lt;div style=&quot;margin-left: -1rem; color: gray; padding: 1rem; background: rgb(229, 229, 229); border-top-left-radius: inherit; border-top-right-radius: inherit;&quot;&gt; bash&lt;/div&gt;&lt;div style=&quot;background-color: rgb(245, 245, 245); color: rgb(8, 8, 8);&quot;&gt;&lt;pre style=&quot;font-family:&#39;JetBrains Mono&#39;,monospace;font-size:11.3pt;&quot;&gt;&lt;span style=&quot;color: rgb(140, 140, 140); font-style: italic;&quot;&gt;#从idea里复制内容过来&lt;/span&gt;&lt;/pre&gt;&lt;/div&gt;&lt;/div&gt;&lt;div&gt;&amp;nbsp; &amp;nbsp;&lt;/div&gt;&lt;div&gt;&lt;br&gt;&lt;/div&gt;&lt;div&gt;&lt;br&gt;&lt;br&gt;&lt;/div&gt;" style="text;align=left;verticalAlign=top;spacingLeft=16;spacingRight=4;overflow=hidden;rotatable=0;points=[[0,0.5],[1,0.5]];portConstraint=eastwest;whiteSpace=wrap;html=1;fontSize=12;fillColor=default;strokeColor=#808080;fontFamily=Helvetica;fontColor=default;fontStyle=0;horizontal=1;" parent="EpmGPzOIkWGxl7WI5x01-4" vertex="1">
          <mxGeometry y="290" width="850" height="250" as="geometry" />
        </mxCell>
        <mxCell id="EpmGPzOIkWGxl7WI5x01-7" value="&amp;nbsp; &amp;nbsp; &amp;nbsp; &amp;nbsp; &amp;nbsp;&amp;nbsp;&lt;span style=&quot;white-space: pre;&quot;&gt;&#x9;&lt;/span&gt;&lt;span style=&quot;white-space: pre;&quot;&gt;&#x9;&lt;/span&gt;&lt;span style=&quot;white-space: pre;&quot;&gt;&#x9;&lt;/span&gt;&lt;span style=&quot;white-space: pre;&quot;&gt;&#x9;&lt;/span&gt;&lt;span style=&quot;white-space: pre;&quot;&gt;&#x9;&lt;span style=&quot;white-space: pre;&quot;&gt;&#x9;&lt;/span&gt;&lt;span style=&quot;white-space: pre;&quot;&gt;&#x9;&lt;/span&gt;&lt;/span&gt;&lt;span style=&quot;white-space: pre;&quot;&gt;&#x9;&lt;/span&gt;&lt;span style=&quot;white-space: pre;&quot;&gt;&#x9;&lt;/span&gt;&lt;span style=&quot;white-space: pre;&quot;&gt;&#x9;&lt;/span&gt;&lt;span style=&quot;white-space: pre;&quot;&gt;&#x9;&lt;/span&gt;&lt;span style=&quot;white-space: pre;&quot;&gt;&#x9;&lt;/span&gt;&lt;span style=&quot;white-space: pre;&quot;&gt;&#x9;&lt;/span&gt;&lt;span style=&quot;white-space: pre;&quot;&gt;&#x9;&lt;/span&gt;&lt;span style=&quot;white-space: pre;&quot;&gt;&#x9;&lt;/span&gt;&lt;span style=&quot;white-space: pre;&quot;&gt;&#x9;&lt;/span&gt;&lt;span style=&quot;white-space: pre;&quot;&gt;&#x9;&lt;/span&gt;&lt;span style=&quot;white-space: pre;&quot;&gt;&#x9;&lt;/span&gt;&lt;span style=&quot;white-space: pre;&quot;&gt;    &lt;/span&gt;&lt;span style=&quot;white-space: pre;&quot;&gt;tab空格到这里，可以设定宽度&lt;/span&gt;&lt;hr&gt;&lt;div&gt;&lt;br&gt;&lt;/div&gt;&lt;div&gt;&lt;br&gt;&lt;/div&gt;" style="text;align=left;verticalAlign=top;spacingLeft=16;spacingRight=4;overflow=hidden;rotatable=0;points=[[0,0.5],[1,0.5]];portConstraint=eastwest;whiteSpace=wrap;html=1;fontSize=12;fillColor=default;strokeColor=#808080;fontFamily=Helvetica;fontColor=default;fontStyle=0;horizontal=1;" parent="EpmGPzOIkWGxl7WI5x01-4" vertex="1">
          <mxGeometry y="540" width="850" height="250" as="geometry" />
        </mxCell>
        <mxCell id="EpmGPzOIkWGxl7WI5x01-8" value="" style="text;align=left;verticalAlign=top;spacingLeft=4;spacingRight=4;overflow=hidden;rotatable=0;portConstraint=eastwest;whiteSpace=wrap;html=1;fillColor=#EEEEEE;strokeColor=#808080;" parent="EpmGPzOIkWGxl7WI5x01-1" vertex="1">
          <mxGeometry y="940" width="850" height="34" as="geometry" />
        </mxCell>
        <mxCell id="EpmGPzOIkWGxl7WI5x01-9" value="" style="text;align=left;verticalAlign=top;spacingLeft=16;spacingRight=4;overflow=hidden;rotatable=0;points=[[0,0.5],[1,0.5]];portConstraint=eastwest;whiteSpace=wrap;html=1;fontSize=14;fillColor=default;strokeColor=#808080;" parent="EpmGPzOIkWGxl7WI5x01-1" vertex="1">
          <mxGeometry y="974" width="850" height="146" as="geometry" />
        </mxCell>
        <mxCell id="Oeyfec6gX6lL5wna3G6M-47" value="&lt;div&gt;&lt;strong&gt;核心要点总结&lt;/strong&gt;&lt;/div&gt;&lt;div&gt;&lt;strong&gt;&lt;br&gt;&lt;/strong&gt;&lt;/div&gt;&lt;div&gt;&lt;br/&gt;&lt;/div&gt;" style="text;align=left;verticalAlign=top;spacingLeft=16;spacingRight=4;overflow=hidden;rotatable=0;points=[[0,0.5],[1,0.5]];portConstraint=eastwest;whiteSpace=wrap;html=1;fontSize=14;fillColor=default;strokeColor=#808080;" vertex="1" parent="EpmGPzOIkWGxl7WI5x01-1">
          <mxGeometry y="1120" width="850" height="160" as="geometry" />
        </mxCell>
        <UserObject label="" mermaidData="{&#xa;  &quot;data&quot;: &quot;graph TD;\n  A--&gt;B;\n  A--&gt;C;\n  B--&gt;D;\n  C--&gt;D;&quot;&#xa;}" id="Oeyfec6gX6lL5wna3G6M-48">
          <mxCell style="shape=image;noLabel=1;verticalAlign=top;imageAspect=1;image=data:image/svg+xml,PHN2ZyBhcmlhLXJvbGVkZXNjcmlwdGlvbj0iZmxvd2NoYXJ0LXYyIiByb2xlPSJncmFwaGljcy1kb2N1bWVudCBkb2N1bWVudCIgdmlld0JveD0iMCAwIDIwNC42MTY2Njg3MDExNzE4OCAyNzgiIHN0eWxlPSJtYXgtd2lkdGg6IDIwNC42MTY2Njg3MDExNzE4OHB4OyIgY2xhc3M9ImZsb3djaGFydCIgeG1sbnM9Imh0dHA6Ly93d3cudzMub3JnLzIwMDAvc3ZnIiB3aWR0aD0iMTAwJSIgaWQ9ImdlTWVybWFpZE91dHB1dC0xNzUzNzA4MzAzNzg2Ij48c3R5bGU+I2dlTWVybWFpZE91dHB1dC0xNzUzNzA4MzAzNzg2e2ZvbnQtZmFtaWx5OiJ0cmVidWNoZXQgbXMiLHZlcmRhbmEsYXJpYWwsc2Fucy1zZXJpZjtmb250LXNpemU6MTZweDtmaWxsOiMwMDAwMDA7fUBrZXlmcmFtZXMgZWRnZS1hbmltYXRpb24tZnJhbWV7ZnJvbXtzdHJva2UtZGFzaG9mZnNldDowO319QGtleWZyYW1lcyBkYXNoe3Rve3N0cm9rZS1kYXNob2Zmc2V0OjA7fX0jZ2VNZXJtYWlkT3V0cHV0LTE3NTM3MDgzMDM3ODYgLmVkZ2UtYW5pbWF0aW9uLXNsb3d7c3Ryb2tlLWRhc2hhcnJheTo5LDUhaW1wb3J0YW50O3N0cm9rZS1kYXNob2Zmc2V0OjkwMDthbmltYXRpb246ZGFzaCA1MHMgbGluZWFyIGluZmluaXRlO3N0cm9rZS1saW5lY2FwOnJvdW5kO30jZ2VNZXJtYWlkT3V0cHV0LTE3NTM3MDgzMDM3ODYgLmVkZ2UtYW5pbWF0aW9uLWZhc3R7c3Ryb2tlLWRhc2hhcnJheTo5LDUhaW1wb3J0YW50O3N0cm9rZS1kYXNob2Zmc2V0OjkwMDthbmltYXRpb246ZGFzaCAyMHMgbGluZWFyIGluZmluaXRlO3N0cm9rZS1saW5lY2FwOnJvdW5kO30jZ2VNZXJtYWlkT3V0cHV0LTE3NTM3MDgzMDM3ODYgLmVycm9yLWljb257ZmlsbDojNTUyMjIyO30jZ2VNZXJtYWlkT3V0cHV0LTE3NTM3MDgzMDM3ODYgLmVycm9yLXRleHR7ZmlsbDojNTUyMjIyO3N0cm9rZTojNTUyMjIyO30jZ2VNZXJtYWlkT3V0cHV0LTE3NTM3MDgzMDM3ODYgLmVkZ2UtdGhpY2tuZXNzLW5vcm1hbHtzdHJva2Utd2lkdGg6MXB4O30jZ2VNZXJtYWlkT3V0cHV0LTE3NTM3MDgzMDM3ODYgLmVkZ2UtdGhpY2tuZXNzLXRoaWNre3N0cm9rZS13aWR0aDozLjVweDt9I2dlTWVybWFpZE91dHB1dC0xNzUzNzA4MzAzNzg2IC5lZGdlLXBhdHRlcm4tc29saWR7c3Ryb2tlLWRhc2hhcnJheTowO30jZ2VNZXJtYWlkT3V0cHV0LTE3NTM3MDgzMDM3ODYgLmVkZ2UtdGhpY2tuZXNzLWludmlzaWJsZXtzdHJva2Utd2lkdGg6MDtmaWxsOm5vbmU7fSNnZU1lcm1haWRPdXRwdXQtMTc1MzcwODMwMzc4NiAuZWRnZS1wYXR0ZXJuLWRhc2hlZHtzdHJva2UtZGFzaGFycmF5OjM7fSNnZU1lcm1haWRPdXRwdXQtMTc1MzcwODMwMzc4NiAuZWRnZS1wYXR0ZXJuLWRvdHRlZHtzdHJva2UtZGFzaGFycmF5OjI7fSNnZU1lcm1haWRPdXRwdXQtMTc1MzcwODMwMzc4NiAubWFya2Vye2ZpbGw6IzY2NjtzdHJva2U6IzY2Njt9I2dlTWVybWFpZE91dHB1dC0xNzUzNzA4MzAzNzg2IC5tYXJrZXIuY3Jvc3N7c3Ryb2tlOiM2NjY7fSNnZU1lcm1haWRPdXRwdXQtMTc1MzcwODMwMzc4NiBzdmd7Zm9udC1mYW1pbHk6InRyZWJ1Y2hldCBtcyIsdmVyZGFuYSxhcmlhbCxzYW5zLXNlcmlmO2ZvbnQtc2l6ZToxNnB4O30jZ2VNZXJtYWlkT3V0cHV0LTE3NTM3MDgzMDM3ODYgcHttYXJnaW46MDt9I2dlTWVybWFpZE91dHB1dC0xNzUzNzA4MzAzNzg2IC5sYWJlbHtmb250LWZhbWlseToidHJlYnVjaGV0IG1zIix2ZXJkYW5hLGFyaWFsLHNhbnMtc2VyaWY7Y29sb3I6IzAwMDAwMDt9I2dlTWVybWFpZE91dHB1dC0xNzUzNzA4MzAzNzg2IC5jbHVzdGVyLWxhYmVsIHRleHR7ZmlsbDojMzMzO30jZ2VNZXJtYWlkT3V0cHV0LTE3NTM3MDgzMDM3ODYgLmNsdXN0ZXItbGFiZWwgc3Bhbntjb2xvcjojMzMzO30jZ2VNZXJtYWlkT3V0cHV0LTE3NTM3MDgzMDM3ODYgLmNsdXN0ZXItbGFiZWwgc3BhbiBwe2JhY2tncm91bmQtY29sb3I6dHJhbnNwYXJlbnQ7fSNnZU1lcm1haWRPdXRwdXQtMTc1MzcwODMwMzc4NiAubGFiZWwgdGV4dCwjZ2VNZXJtYWlkT3V0cHV0LTE3NTM3MDgzMDM3ODYgc3BhbntmaWxsOiMwMDAwMDA7Y29sb3I6IzAwMDAwMDt9I2dlTWVybWFpZE91dHB1dC0xNzUzNzA4MzAzNzg2IC5ub2RlIHJlY3QsI2dlTWVybWFpZE91dHB1dC0xNzUzNzA4MzAzNzg2IC5ub2RlIGNpcmNsZSwjZ2VNZXJtYWlkT3V0cHV0LTE3NTM3MDgzMDM3ODYgLm5vZGUgZWxsaXBzZSwjZ2VNZXJtYWlkT3V0cHV0LTE3NTM3MDgzMDM3ODYgLm5vZGUgcG9seWdvbiwjZ2VNZXJtYWlkT3V0cHV0LTE3NTM3MDgzMDM3ODYgLm5vZGUgcGF0aHtmaWxsOiNlZWU7c3Ryb2tlOiM5OTk7c3Ryb2tlLXdpZHRoOjFweDt9I2dlTWVybWFpZE91dHB1dC0xNzUzNzA4MzAzNzg2IC5yb3VnaC1ub2RlIC5sYWJlbCB0ZXh0LCNnZU1lcm1haWRPdXRwdXQtMTc1MzcwODMwMzc4NiAubm9kZSAubGFiZWwgdGV4dCwjZ2VNZXJtYWlkT3V0cHV0LTE3NTM3MDgzMDM3ODYgLmltYWdlLXNoYXBlIC5sYWJlbCwjZ2VNZXJtYWlkT3V0cHV0LTE3NTM3MDgzMDM3ODYgLmljb24tc2hhcGUgLmxhYmVse3RleHQtYW5jaG9yOm1pZGRsZTt9I2dlTWVybWFpZE91dHB1dC0xNzUzNzA4MzAzNzg2IC5ub2RlIC5rYXRleCBwYXRoe2ZpbGw6IzAwMDtzdHJva2U6IzAwMDtzdHJva2Utd2lkdGg6MXB4O30jZ2VNZXJtYWlkT3V0cHV0LTE3NTM3MDgzMDM3ODYgLnJvdWdoLW5vZGUgLmxhYmVsLCNnZU1lcm1haWRPdXRwdXQtMTc1MzcwODMwMzc4NiAubm9kZSAubGFiZWwsI2dlTWVybWFpZE91dHB1dC0xNzUzNzA4MzAzNzg2IC5pbWFnZS1zaGFwZSAubGFiZWwsI2dlTWVybWFpZE91dHB1dC0xNzUzNzA4MzAzNzg2IC5pY29uLXNoYXBlIC5sYWJlbHt0ZXh0LWFsaWduOmNlbnRlcjt9I2dlTWVybWFpZE91dHB1dC0xNzUzNzA4MzAzNzg2IC5ub2RlLmNsaWNrYWJsZXtjdXJzb3I6cG9pbnRlcjt9I2dlTWVybWFpZE91dHB1dC0xNzUzNzA4MzAzNzg2IC5yb290IC5hbmNob3IgcGF0aHtmaWxsOiM2NjYhaW1wb3J0YW50O3N0cm9rZS13aWR0aDowO3N0cm9rZTojNjY2O30jZ2VNZXJtYWlkT3V0cHV0LTE3NTM3MDgzMDM3ODYgLmFycm93aGVhZFBhdGh7ZmlsbDojMzMzMzMzO30jZ2VNZXJtYWlkT3V0cHV0LTE3NTM3MDgzMDM3ODYgLmVkZ2VQYXRoIC5wYXRoe3N0cm9rZTojNjY2O3N0cm9rZS13aWR0aDoyLjBweDt9I2dlTWVybWFpZE91dHB1dC0xNzUzNzA4MzAzNzg2IC5mbG93Y2hhcnQtbGlua3tzdHJva2U6IzY2NjtmaWxsOm5vbmU7fSNnZU1lcm1haWRPdXRwdXQtMTc1MzcwODMwMzc4NiAuZWRnZUxhYmVse2JhY2tncm91bmQtY29sb3I6d2hpdGU7dGV4dC1hbGlnbjpjZW50ZXI7fSNnZU1lcm1haWRPdXRwdXQtMTc1MzcwODMwMzc4NiAuZWRnZUxhYmVsIHB7YmFja2dyb3VuZC1jb2xvcjp3aGl0ZTt9I2dlTWVybWFpZE91dHB1dC0xNzUzNzA4MzAzNzg2IC5lZGdlTGFiZWwgcmVjdHtvcGFjaXR5OjAuNTtiYWNrZ3JvdW5kLWNvbG9yOndoaXRlO2ZpbGw6d2hpdGU7fSNnZU1lcm1haWRPdXRwdXQtMTc1MzcwODMwMzc4NiAubGFiZWxCa2d7YmFja2dyb3VuZC1jb2xvcjpyZ2JhKDI1NSwgMjU1LCAyNTUsIDAuNSk7fSNnZU1lcm1haWRPdXRwdXQtMTc1MzcwODMwMzc4NiAuY2x1c3RlciByZWN0e2ZpbGw6aHNsKDAsIDAlLCA5OC45MjE1Njg2Mjc1JSk7c3Ryb2tlOiM3MDcwNzA7c3Ryb2tlLXdpZHRoOjFweDt9I2dlTWVybWFpZE91dHB1dC0xNzUzNzA4MzAzNzg2IC5jbHVzdGVyIHRleHR7ZmlsbDojMzMzO30jZ2VNZXJtYWlkT3V0cHV0LTE3NTM3MDgzMDM3ODYgLmNsdXN0ZXIgc3Bhbntjb2xvcjojMzMzO30jZ2VNZXJtYWlkT3V0cHV0LTE3NTM3MDgzMDM3ODYgZGl2Lm1lcm1haWRUb29sdGlwe3Bvc2l0aW9uOmFic29sdXRlO3RleHQtYWxpZ246Y2VudGVyO21heC13aWR0aDoyMDBweDtwYWRkaW5nOjJweDtmb250LWZhbWlseToidHJlYnVjaGV0IG1zIix2ZXJkYW5hLGFyaWFsLHNhbnMtc2VyaWY7Zm9udC1zaXplOjEycHg7YmFja2dyb3VuZDpoc2woLTE2MCwgMCUsIDkzLjMzMzMzMzMzMzMlKTtib3JkZXI6MXB4IHNvbGlkICM3MDcwNzA7Ym9yZGVyLXJhZGl1czoycHg7cG9pbnRlci1ldmVudHM6bm9uZTt6LWluZGV4OjEwMDt9I2dlTWVybWFpZE91dHB1dC0xNzUzNzA4MzAzNzg2IC5mbG93Y2hhcnRUaXRsZVRleHR7dGV4dC1hbmNob3I6bWlkZGxlO2ZvbnQtc2l6ZToxOHB4O2ZpbGw6IzAwMDAwMDt9I2dlTWVybWFpZE91dHB1dC0xNzUzNzA4MzAzNzg2IHJlY3QudGV4dHtmaWxsOm5vbmU7c3Ryb2tlLXdpZHRoOjA7fSNnZU1lcm1haWRPdXRwdXQtMTc1MzcwODMwMzc4NiAuaWNvbi1zaGFwZSwjZ2VNZXJtYWlkT3V0cHV0LTE3NTM3MDgzMDM3ODYgLmltYWdlLXNoYXBle2JhY2tncm91bmQtY29sb3I6d2hpdGU7dGV4dC1hbGlnbjpjZW50ZXI7fSNnZU1lcm1haWRPdXRwdXQtMTc1MzcwODMwMzc4NiAuaWNvbi1zaGFwZSBwLCNnZU1lcm1haWRPdXRwdXQtMTc1MzcwODMwMzc4NiAuaW1hZ2Utc2hhcGUgcHtiYWNrZ3JvdW5kLWNvbG9yOndoaXRlO3BhZGRpbmc6MnB4O30jZ2VNZXJtYWlkT3V0cHV0LTE3NTM3MDgzMDM3ODYgLmljb24tc2hhcGUgcmVjdCwjZ2VNZXJtYWlkT3V0cHV0LTE3NTM3MDgzMDM3ODYgLmltYWdlLXNoYXBlIHJlY3R7b3BhY2l0eTowLjU7YmFja2dyb3VuZC1jb2xvcjp3aGl0ZTtmaWxsOndoaXRlO30jZ2VNZXJtYWlkT3V0cHV0LTE3NTM3MDgzMDM3ODYgOnJvb3R7LS1tZXJtYWlkLWZvbnQtZmFtaWx5OiJ0cmVidWNoZXQgbXMiLHZlcmRhbmEsYXJpYWwsc2Fucy1zZXJpZjt9PC9zdHlsZT48Zz48bWFya2VyIG9yaWVudD0iYXV0byIgbWFya2VySGVpZ2h0PSI4IiBtYXJrZXJXaWR0aD0iOCIgbWFya2VyVW5pdHM9InVzZXJTcGFjZU9uVXNlIiByZWZZPSI1IiByZWZYPSI1IiB2aWV3Qm94PSIwIDAgMTAgMTAiIGNsYXNzPSJtYXJrZXIgZmxvd2NoYXJ0LXYyIiBpZD0iZ2VNZXJtYWlkT3V0cHV0LTE3NTM3MDgzMDM3ODZfZmxvd2NoYXJ0LXYyLXBvaW50RW5kIj48cGF0aCBzdHlsZT0ic3Ryb2tlLXdpZHRoOiAxcHg7IHN0cm9rZS1kYXNoYXJyYXk6IDFweCwgMHB4OyIgY2xhc3M9ImFycm93TWFya2VyUGF0aCIgZD0iTSAwIDAgTCAxMCA1IEwgMCAxMCB6Ij48L3BhdGg+PC9tYXJrZXI+PG1hcmtlciBvcmllbnQ9ImF1dG8iIG1hcmtlckhlaWdodD0iOCIgbWFya2VyV2lkdGg9IjgiIG1hcmtlclVuaXRzPSJ1c2VyU3BhY2VPblVzZSIgcmVmWT0iNSIgcmVmWD0iNC41IiB2aWV3Qm94PSIwIDAgMTAgMTAiIGNsYXNzPSJtYXJrZXIgZmxvd2NoYXJ0LXYyIiBpZD0iZ2VNZXJtYWlkT3V0cHV0LTE3NTM3MDgzMDM3ODZfZmxvd2NoYXJ0LXYyLXBvaW50U3RhcnQiPjxwYXRoIHN0eWxlPSJzdHJva2Utd2lkdGg6IDFweDsgc3Ryb2tlLWRhc2hhcnJheTogMXB4LCAwcHg7IiBjbGFzcz0iYXJyb3dNYXJrZXJQYXRoIiBkPSJNIDAgNSBMIDEwIDEwIEwgMTAgMCB6Ij48L3BhdGg+PC9tYXJrZXI+PG1hcmtlciBvcmllbnQ9ImF1dG8iIG1hcmtlckhlaWdodD0iMTEiIG1hcmtlcldpZHRoPSIxMSIgbWFya2VyVW5pdHM9InVzZXJTcGFjZU9uVXNlIiByZWZZPSI1IiByZWZYPSIxMSIgdmlld0JveD0iMCAwIDEwIDEwIiBjbGFzcz0ibWFya2VyIGZsb3djaGFydC12MiIgaWQ9ImdlTWVybWFpZE91dHB1dC0xNzUzNzA4MzAzNzg2X2Zsb3djaGFydC12Mi1jaXJjbGVFbmQiPjxjaXJjbGUgc3R5bGU9InN0cm9rZS13aWR0aDogMXB4OyBzdHJva2UtZGFzaGFycmF5OiAxcHgsIDBweDsiIGNsYXNzPSJhcnJvd01hcmtlclBhdGgiIHI9IjUiIGN5PSI1IiBjeD0iNSI+PC9jaXJjbGU+PC9tYXJrZXI+PG1hcmtlciBvcmllbnQ9ImF1dG8iIG1hcmtlckhlaWdodD0iMTEiIG1hcmtlcldpZHRoPSIxMSIgbWFya2VyVW5pdHM9InVzZXJTcGFjZU9uVXNlIiByZWZZPSI1IiByZWZYPSItMSIgdmlld0JveD0iMCAwIDEwIDEwIiBjbGFzcz0ibWFya2VyIGZsb3djaGFydC12MiIgaWQ9ImdlTWVybWFpZE91dHB1dC0xNzUzNzA4MzAzNzg2X2Zsb3djaGFydC12Mi1jaXJjbGVTdGFydCI+PGNpcmNsZSBzdHlsZT0ic3Ryb2tlLXdpZHRoOiAxcHg7IHN0cm9rZS1kYXNoYXJyYXk6IDFweCwgMHB4OyIgY2xhc3M9ImFycm93TWFya2VyUGF0aCIgcj0iNSIgY3k9IjUiIGN4PSI1Ij48L2NpcmNsZT48L21hcmtlcj48bWFya2VyIG9yaWVudD0iYXV0byIgbWFya2VySGVpZ2h0PSIxMSIgbWFya2VyV2lkdGg9IjExIiBtYXJrZXJVbml0cz0idXNlclNwYWNlT25Vc2UiIHJlZlk9IjUuMiIgcmVmWD0iMTIiIHZpZXdCb3g9IjAgMCAxMSAxMSIgY2xhc3M9Im1hcmtlciBjcm9zcyBmbG93Y2hhcnQtdjIiIGlkPSJnZU1lcm1haWRPdXRwdXQtMTc1MzcwODMwMzc4Nl9mbG93Y2hhcnQtdjItY3Jvc3NFbmQiPjxwYXRoIHN0eWxlPSJzdHJva2Utd2lkdGg6IDJweDsgc3Ryb2tlLWRhc2hhcnJheTogMXB4LCAwcHg7IiBjbGFzcz0iYXJyb3dNYXJrZXJQYXRoIiBkPSJNIDEsMSBsIDksOSBNIDEwLDEgbCAtOSw5Ij48L3BhdGg+PC9tYXJrZXI+PG1hcmtlciBvcmllbnQ9ImF1dG8iIG1hcmtlckhlaWdodD0iMTEiIG1hcmtlcldpZHRoPSIxMSIgbWFya2VyVW5pdHM9InVzZXJTcGFjZU9uVXNlIiByZWZZPSI1LjIiIHJlZlg9Ii0xIiB2aWV3Qm94PSIwIDAgMTEgMTEiIGNsYXNzPSJtYXJrZXIgY3Jvc3MgZmxvd2NoYXJ0LXYyIiBpZD0iZ2VNZXJtYWlkT3V0cHV0LTE3NTM3MDgzMDM3ODZfZmxvd2NoYXJ0LXYyLWNyb3NzU3RhcnQiPjxwYXRoIHN0eWxlPSJzdHJva2Utd2lkdGg6IDJweDsgc3Ryb2tlLWRhc2hhcnJheTogMXB4LCAwcHg7IiBjbGFzcz0iYXJyb3dNYXJrZXJQYXRoIiBkPSJNIDEsMSBsIDksOSBNIDEwLDEgbCAtOSw5Ij48L3BhdGg+PC9tYXJrZXI+PGcgY2xhc3M9InJvb3QiPjxnIGNsYXNzPSJjbHVzdGVycyI+PC9nPjxnIGNsYXNzPSJlZGdlUGF0aHMiPjxwYXRoIG1hcmtlci1lbmQ9InVybCgjZ2VNZXJtYWlkT3V0cHV0LTE3NTM3MDgzMDM3ODZfZmxvd2NoYXJ0LXYyLXBvaW50RW5kKSIgc3R5bGU9IiIgY2xhc3M9ImVkZ2UtdGhpY2tuZXNzLW5vcm1hbCBlZGdlLXBhdHRlcm4tc29saWQgZWRnZS10aGlja25lc3Mtbm9ybWFsIGVkZ2UtcGF0dGVybi1zb2xpZCBmbG93Y2hhcnQtbGluayIgaWQ9IkxfQV9CXzAiIGQ9Ik03MS4yMDUsNjJMNjYuNDI1LDY2LjE2N0M2MS42NDUsNzAuMzMzLDUyLjA4NSw3OC42NjcsNDcuMzA1LDg2LjMzM0M0Mi41MjUsOTQsNDIuNTI1LDEwMSw0Mi41MjUsMTA0LjVMNDIuNTI1LDEwOCI+PC9wYXRoPjxwYXRoIG1hcmtlci1lbmQ9InVybCgjZ2VNZXJtYWlkT3V0cHV0LTE3NTM3MDgzMDM3ODZfZmxvd2NoYXJ0LXYyLXBvaW50RW5kKSIgc3R5bGU9IiIgY2xhc3M9ImVkZ2UtdGhpY2tuZXNzLW5vcm1hbCBlZGdlLXBhdHRlcm4tc29saWQgZWRnZS10aGlja25lc3Mtbm9ybWFsIGVkZ2UtcGF0dGVybi1zb2xpZCBmbG93Y2hhcnQtbGluayIgaWQ9IkxfQV9DXzAiIGQ9Ik0xMzMuMTUzLDYyTDEzNy45MzMsNjYuMTY3QzE0Mi43MTMsNzAuMzMzLDE1Mi4yNzMsNzguNjY3LDE1Ny4wNTMsODYuMzMzQzE2MS44MzMsOTQsMTYxLjgzMywxMDEsMTYxLjgzMywxMDQuNUwxNjEuODMzLDEwOCI+PC9wYXRoPjxwYXRoIG1hcmtlci1lbmQ9InVybCgjZ2VNZXJtYWlkT3V0cHV0LTE3NTM3MDgzMDM3ODZfZmxvd2NoYXJ0LXYyLXBvaW50RW5kKSIgc3R5bGU9IiIgY2xhc3M9ImVkZ2UtdGhpY2tuZXNzLW5vcm1hbCBlZGdlLXBhdHRlcm4tc29saWQgZWRnZS10aGlja25lc3Mtbm9ybWFsIGVkZ2UtcGF0dGVybi1zb2xpZCBmbG93Y2hhcnQtbGluayIgaWQ9IkxfQl9EXzAiIGQ9Ik00Mi41MjUsMTY2TDQyLjUyNSwxNzAuMTY3QzQyLjUyNSwxNzQuMzMzLDQyLjUyNSwxODIuNjY3LDQ2LjgwMiwxOTAuNTYyQzUxLjA4LDE5OC40NTcsNTkuNjM1LDIwNS45MTQsNjMuOTEyLDIwOS42NDNMNjguMTksMjEzLjM3MiI+PC9wYXRoPjxwYXRoIG1hcmtlci1lbmQ9InVybCgjZ2VNZXJtYWlkT3V0cHV0LTE3NTM3MDgzMDM3ODZfZmxvd2NoYXJ0LXYyLXBvaW50RW5kKSIgc3R5bGU9IiIgY2xhc3M9ImVkZ2UtdGhpY2tuZXNzLW5vcm1hbCBlZGdlLXBhdHRlcm4tc29saWQgZWRnZS10aGlja25lc3Mtbm9ybWFsIGVkZ2UtcGF0dGVybi1zb2xpZCBmbG93Y2hhcnQtbGluayIgaWQ9IkxfQ19EXzAiIGQ9Ik0xNjEuODMzLDE2NkwxNjEuODMzLDE3MC4xNjdDMTYxLjgzMywxNzQuMzMzLDE2MS44MzMsMTgyLjY2NywxNTcuNTU2LDE5MC41NjJDMTUzLjI3OCwxOTguNDU3LDE0NC43MjQsMjA1LjkxNCwxNDAuNDQ2LDIwOS42NDNMMTM2LjE2OSwyMTMuMzcyIj48L3BhdGg+PC9nPjxnIGNsYXNzPSJlZGdlTGFiZWxzIj48Zz48cmVjdCBzdHlsZT0ic3Ryb2tlOiBub25lIiBjbGFzcz0iYmFja2dyb3VuZCI+PC9yZWN0PjwvZz48Zz48cmVjdCBzdHlsZT0ic3Ryb2tlOiBub25lIiBjbGFzcz0iYmFja2dyb3VuZCI+PC9yZWN0PjwvZz48Zz48cmVjdCBzdHlsZT0ic3Ryb2tlOiBub25lIiBjbGFzcz0iYmFja2dyb3VuZCI+PC9yZWN0PjwvZz48Zz48cmVjdCBzdHlsZT0ic3Ryb2tlOiBub25lIiBjbGFzcz0iYmFja2dyb3VuZCI+PC9yZWN0PjwvZz48ZyBjbGFzcz0iZWRnZUxhYmVsIj48ZyB0cmFuc2Zvcm09InRyYW5zbGF0ZSgwLCAwKSIgY2xhc3M9ImxhYmVsIj48dGV4dCB5PSItMTAuMSI+PHRzcGFuIGR5PSIxLjFlbSIgeT0iLTAuMWVtIiB4PSIwIiBjbGFzcz0idGV4dC1vdXRlci10c3BhbiI+PC90c3Bhbj48L3RleHQ+PC9nPjwvZz48ZyBjbGFzcz0iZWRnZUxhYmVsIj48ZyB0cmFuc2Zvcm09InRyYW5zbGF0ZSgwLCAwKSIgY2xhc3M9ImxhYmVsIj48dGV4dCB5PSItMTAuMSI+PHRzcGFuIGR5PSIxLjFlbSIgeT0iLTAuMWVtIiB4PSIwIiBjbGFzcz0idGV4dC1vdXRlci10c3BhbiI+PC90c3Bhbj48L3RleHQ+PC9nPjwvZz48ZyBjbGFzcz0iZWRnZUxhYmVsIj48ZyB0cmFuc2Zvcm09InRyYW5zbGF0ZSgwLCAwKSIgY2xhc3M9ImxhYmVsIj48dGV4dCB5PSItMTAuMSI+PHRzcGFuIGR5PSIxLjFlbSIgeT0iLTAuMWVtIiB4PSIwIiBjbGFzcz0idGV4dC1vdXRlci10c3BhbiI+PC90c3Bhbj48L3RleHQ+PC9nPjwvZz48ZyBjbGFzcz0iZWRnZUxhYmVsIj48ZyB0cmFuc2Zvcm09InRyYW5zbGF0ZSgwLCAwKSIgY2xhc3M9ImxhYmVsIj48dGV4dCB5PSItMTAuMSI+PHRzcGFuIGR5PSIxLjFlbSIgeT0iLTAuMWVtIiB4PSIwIiBjbGFzcz0idGV4dC1vdXRlci10c3BhbiI+PC90c3Bhbj48L3RleHQ+PC9nPjwvZz48L2c+PGcgY2xhc3M9Im5vZGVzIj48ZyB0cmFuc2Zvcm09InRyYW5zbGF0ZSgxMDIuMTc5MTY4NzAxMTcxODgsIDM1KSIgaWQ9ImZsb3djaGFydC1BLTAiIGNsYXNzPSJub2RlIGRlZmF1bHQiPjxyZWN0IGhlaWdodD0iNTQiIHdpZHRoPSI2OS40MzMzMzQzNTA1ODU5NCIgeT0iLTI3IiB4PSItMzQuNzE2NjY3MTc1MjkyOTciIHN0eWxlPSIiIGNsYXNzPSJiYXNpYyBsYWJlbC1jb250YWluZXIiPjwvcmVjdD48ZyB0cmFuc2Zvcm09InRyYW5zbGF0ZSgtNC43MTY2NjcxNzUyOTI5NjksIC0xMikiIHN0eWxlPSIiIGNsYXNzPSJsYWJlbCI+PHJlY3Q+PC9yZWN0Pjxmb3JlaWduT2JqZWN0IGhlaWdodD0iMjQiIHdpZHRoPSI5LjQzMzMzNDM1MDU4NTkzOCI+PGRpdiB4bWxucz0iaHR0cDovL3d3dy53My5vcmcvMTk5OS94aHRtbCIgc3R5bGU9ImRpc3BsYXk6IHRhYmxlLWNlbGw7IHdoaXRlLXNwYWNlOiBub3dyYXA7IGxpbmUtaGVpZ2h0OiAxLjU7IG1heC13aWR0aDogMjAwcHg7IHRleHQtYWxpZ246IGNlbnRlcjsiPjxzcGFuIGNsYXNzPSJub2RlTGFiZWwiPjxwPkE8L3A+PC9zcGFuPjwvZGl2PjwvZm9yZWlnbk9iamVjdD48L2c+PC9nPjxnIHRyYW5zZm9ybT0idHJhbnNsYXRlKDQyLjUyNTAwMTUyNTg3ODkwNiwgMTM5KSIgaWQ9ImZsb3djaGFydC1CLTEiIGNsYXNzPSJub2RlIGRlZmF1bHQiPjxyZWN0IGhlaWdodD0iNTQiIHdpZHRoPSI2OS4wNTAwMDMwNTE3NTc4MSIgeT0iLTI3IiB4PSItMzQuNTI1MDAxNTI1ODc4OTA2IiBzdHlsZT0iIiBjbGFzcz0iYmFzaWMgbGFiZWwtY29udGFpbmVyIj48L3JlY3Q+PGcgdHJhbnNmb3JtPSJ0cmFuc2xhdGUoLTQuNTI1MDAxNTI1ODc4OTA2LCAtMTIpIiBzdHlsZT0iIiBjbGFzcz0ibGFiZWwiPjxyZWN0PjwvcmVjdD48Zm9yZWlnbk9iamVjdCBoZWlnaHQ9IjI0IiB3aWR0aD0iOS4wNTAwMDMwNTE3NTc4MTIiPjxkaXYgeG1sbnM9Imh0dHA6Ly93d3cudzMub3JnLzE5OTkveGh0bWwiIHN0eWxlPSJkaXNwbGF5OiB0YWJsZS1jZWxsOyB3aGl0ZS1zcGFjZTogbm93cmFwOyBsaW5lLWhlaWdodDogMS41OyBtYXgtd2lkdGg6IDIwMHB4OyB0ZXh0LWFsaWduOiBjZW50ZXI7Ij48c3BhbiBjbGFzcz0ibm9kZUxhYmVsIj48cD5CPC9wPjwvc3Bhbj48L2Rpdj48L2ZvcmVpZ25PYmplY3Q+PC9nPjwvZz48ZyB0cmFuc2Zvcm09InRyYW5zbGF0ZSgxNjEuODMzMzM1ODc2NDY0ODQsIDEzOSkiIGlkPSJmbG93Y2hhcnQtQy0zIiBjbGFzcz0ibm9kZSBkZWZhdWx0Ij48cmVjdCBoZWlnaHQ9IjU0IiB3aWR0aD0iNjkuNTY2NjY1NjQ5NDE0MDYiIHk9Ii0yNyIgeD0iLTM0Ljc4MzMzMjgyNDcwNzAzIiBzdHlsZT0iIiBjbGFzcz0iYmFzaWMgbGFiZWwtY29udGFpbmVyIj48L3JlY3Q+PGcgdHJhbnNmb3JtPSJ0cmFuc2xhdGUoLTQuNzgzMzMyODI0NzA3MDMxLCAtMTIpIiBzdHlsZT0iIiBjbGFzcz0ibGFiZWwiPjxyZWN0PjwvcmVjdD48Zm9yZWlnbk9iamVjdCBoZWlnaHQ9IjI0IiB3aWR0aD0iOS41NjY2NjU2NDk0MTQwNjIiPjxkaXYgeG1sbnM9Imh0dHA6Ly93d3cudzMub3JnLzE5OTkveGh0bWwiIHN0eWxlPSJkaXNwbGF5OiB0YWJsZS1jZWxsOyB3aGl0ZS1zcGFjZTogbm93cmFwOyBsaW5lLWhlaWdodDogMS41OyBtYXgtd2lkdGg6IDIwMHB4OyB0ZXh0LWFsaWduOiBjZW50ZXI7Ij48c3BhbiBjbGFzcz0ibm9kZUxhYmVsIj48cD5DPC9wPjwvc3Bhbj48L2Rpdj48L2ZvcmVpZ25PYmplY3Q+PC9nPjwvZz48ZyB0cmFuc2Zvcm09InRyYW5zbGF0ZSgxMDIuMTc5MTY4NzAxMTcxODgsIDI0MykiIGlkPSJmbG93Y2hhcnQtRC01IiBjbGFzcz0ibm9kZSBkZWZhdWx0Ij48cmVjdCBoZWlnaHQ9IjU0IiB3aWR0aD0iNjkuODE2NjY1NjQ5NDE0MDYiIHk9Ii0yNyIgeD0iLTM0LjkwODMzMjgyNDcwNzAzIiBzdHlsZT0iIiBjbGFzcz0iYmFzaWMgbGFiZWwtY29udGFpbmVyIj48L3JlY3Q+PGcgdHJhbnNmb3JtPSJ0cmFuc2xhdGUoLTQuOTA4MzMyODI0NzA3MDMxLCAtMTIpIiBzdHlsZT0iIiBjbGFzcz0ibGFiZWwiPjxyZWN0PjwvcmVjdD48Zm9yZWlnbk9iamVjdCBoZWlnaHQ9IjI0IiB3aWR0aD0iOS44MTY2NjU2NDk0MTQwNjIiPjxkaXYgeG1sbnM9Imh0dHA6Ly93d3cudzMub3JnLzE5OTkveGh0bWwiIHN0eWxlPSJkaXNwbGF5OiB0YWJsZS1jZWxsOyB3aGl0ZS1zcGFjZTogbm93cmFwOyBsaW5lLWhlaWdodDogMS41OyBtYXgtd2lkdGg6IDIwMHB4OyB0ZXh0LWFsaWduOiBjZW50ZXI7Ij48c3BhbiBjbGFzcz0ibm9kZUxhYmVsIj48cD5EPC9wPjwvc3Bhbj48L2Rpdj48L2ZvcmVpZ25PYmplY3Q+PC9nPjwvZz48L2c+PC9nPjwvZz48L3N2Zz4=;" vertex="1" parent="1">
            <mxGeometry x="-200" y="140" width="204.61666870117188" height="278" as="geometry" />
          </mxCell>
        </UserObject>
        <mxCell id="Oeyfec6gX6lL5wna3G6M-59" value="&lt;font style=&quot;font-size: 24px;&quot;&gt;&lt;b&gt;#模板 - 活动列表（右键头调整列表顺序）&lt;/b&gt;&lt;/font&gt;" style="swimlane;fontStyle=0;childLayout=stackLayout;horizontal=1;startSize=40;fillColor=default;horizontalStack=0;resizeParent=1;resizeParentMax=0;resizeLast=0;collapsible=1;marginBottom=0;html=1;strokeColor=none;" vertex="1" parent="1">
          <mxGeometry x="50" y="-1160" width="870" height="1532" as="geometry" />
        </mxCell>
        <mxCell id="Oeyfec6gX6lL5wna3G6M-60" value="&lt;div align=&quot;left&quot;&gt;&lt;font style=&quot;font-size: 16px;&quot;&gt;&lt;b&gt;## - 活动列表1（ 右键头调整列表顺序）&lt;/b&gt;&lt;/font&gt;&lt;/div&gt;" style="swimlane;fontStyle=0;childLayout=stackLayout;horizontal=1;startSize=40;horizontalStack=0;resizeParent=1;resizeParentMax=0;resizeLast=0;collapsible=1;marginBottom=0;html=1;align=left;spacingLeft=24;fillColor=#bac8d3;strokeColor=none;absoluteArcSize=0;swimlaneBody=0;" vertex="1" parent="Oeyfec6gX6lL5wna3G6M-59">
          <mxGeometry y="40" width="870" height="110" as="geometry">
            <mxRectangle x="930" y="420" width="850" height="40" as="alternateBounds" />
          </mxGeometry>
        </mxCell>
        <mxCell id="Oeyfec6gX6lL5wna3G6M-61" value="" style="text;align=left;verticalAlign=top;spacingLeft=16;spacingRight=4;overflow=hidden;rotatable=0;points=[[0,0.5],[1,0.5]];portConstraint=eastwest;whiteSpace=wrap;html=1;fontSize=14;fillColor=default;strokeColor=none;autosize=0;" vertex="1" parent="Oeyfec6gX6lL5wna3G6M-60">
          <mxGeometry y="40" width="870" height="70" as="geometry" />
        </mxCell>
        <mxCell id="Oeyfec6gX6lL5wna3G6M-62" value="&lt;div align=&quot;left&quot;&gt;&lt;font style=&quot;font-size: 16px;&quot;&gt;&lt;b&gt;## - 活动列表2（ 右键头调整列表顺序）&lt;/b&gt;&lt;/font&gt;&lt;/div&gt;" style="swimlane;fontStyle=0;childLayout=stackLayout;horizontal=1;startSize=40;fillColor=#bac8d3;horizontalStack=0;resizeParent=1;resizeParentMax=0;resizeLast=0;collapsible=1;marginBottom=0;html=1;strokeColor=none;align=left;spacingLeft=24;verticalAlign=middle;fontFamily=Helvetica;fontSize=12;fontColor=default;" vertex="1" parent="Oeyfec6gX6lL5wna3G6M-59">
          <mxGeometry y="150" width="870" height="790" as="geometry">
            <mxRectangle x="930" y="420" width="850" height="40" as="alternateBounds" />
          </mxGeometry>
        </mxCell>
        <mxCell id="Oeyfec6gX6lL5wna3G6M-63" value="&lt;div&gt;&lt;span style=&quot;white-space: pre;&quot;&gt;&#x9;&lt;/span&gt;&lt;span style=&quot;white-space: pre;&quot;&gt;&#x9;&lt;/span&gt;&lt;span style=&quot;white-space: pre;&quot;&gt;&#x9;&lt;/span&gt;&lt;span style=&quot;white-space: pre;&quot;&gt;&#x9;&lt;/span&gt;&lt;span style=&quot;white-space: pre;&quot;&gt;&#x9;&lt;/span&gt;&lt;span style=&quot;white-space: pre;&quot;&gt;&#x9;&lt;/span&gt;&lt;span style=&quot;white-space: pre;&quot;&gt;&#x9;&lt;/span&gt;&lt;span style=&quot;white-space: pre;&quot;&gt;&#x9;&lt;/span&gt;&lt;span style=&quot;white-space: pre;&quot;&gt;&#x9;&lt;/span&gt;&lt;span style=&quot;white-space: pre;&quot;&gt;&#x9;&lt;/span&gt;&lt;span style=&quot;white-space: pre;&quot;&gt;&#x9;&lt;/span&gt;&lt;span style=&quot;white-space: pre;&quot;&gt;&#x9;&lt;/span&gt;&lt;span style=&quot;white-space: pre;&quot;&gt;&#x9;&lt;/span&gt;&lt;span style=&quot;white-space: pre;&quot;&gt;&#x9;&lt;/span&gt;&lt;span style=&quot;white-space: pre;&quot;&gt;&#x9;&lt;/span&gt;&lt;span style=&quot;white-space: pre;&quot;&gt;&#x9;&lt;/span&gt;&lt;span style=&quot;white-space: pre;&quot;&gt;&#x9;&lt;/span&gt;&lt;span style=&quot;white-space: pre;&quot;&gt;&#x9;&lt;/span&gt;&lt;span style=&quot;white-space: pre;&quot;&gt;&#x9;&lt;/span&gt;&lt;span style=&quot;white-space: pre;&quot;&gt;&#x9;&lt;/span&gt;&lt;span style=&quot;white-space: pre;&quot;&gt;&#x9;&lt;/span&gt;&lt;span style=&quot;white-space: pre;&quot;&gt;&#x9;&lt;/span&gt;&lt;span style=&quot;white-space: pre;&quot;&gt;&#x9;&lt;/span&gt;&lt;span style=&quot;white-space: pre;&quot;&gt;&#x9;&lt;/span&gt;&lt;span style=&quot;white-space: pre;&quot;&gt;&#x9;&lt;/span&gt;&lt;span style=&quot;white-space: pre;&quot;&gt;tab&lt;/span&gt;&lt;span style=&quot;white-space: pre;&quot;&gt;空格到这里，可以设定宽度&lt;/span&gt;&lt;/div&gt;&lt;div&gt;&lt;span style=&quot;white-space: pre;&quot;&gt;&lt;br&gt;&lt;/span&gt;&lt;/div&gt;&lt;div&gt;&lt;span style=&quot;white-space: pre;&quot;&gt;&lt;br&gt;&lt;/span&gt;&lt;/div&gt;&lt;div style=&quot;min-height: 3rem; padding: 0px 0px 0.5rem 1rem; min-width: 60%; background: rgb(245, 245, 245); border: 0px solid gray; border-radius: 8px;&quot;&gt;&lt;div style=&quot;margin-left: -1rem; color: gray; padding: 1rem; background: rgb(229, 229, 229); border-top-left-radius: inherit; border-top-right-radius: inherit;&quot;&gt; bash&lt;/div&gt;&lt;div style=&quot;background-color: rgb(245, 245, 245); color: rgb(8, 8, 8);&quot;&gt;&lt;pre style=&quot;font-family:&#39;JetBrains Mono&#39;,monospace;font-size:11.3pt;&quot;&gt;&lt;span style=&quot;color: rgb(140, 140, 140); font-style: italic;&quot;&gt;#从idea里复制内容过来&lt;/span&gt;&lt;/pre&gt;&lt;/div&gt;&lt;/div&gt;&lt;div&gt;&amp;nbsp; &amp;nbsp;&lt;/div&gt;&lt;div&gt;&lt;br&gt;&lt;/div&gt;&lt;div&gt;&lt;br&gt;&lt;br&gt;&lt;/div&gt;" style="text;align=left;verticalAlign=top;spacingLeft=16;spacingRight=4;overflow=hidden;rotatable=0;points=[[0,0.5],[1,0.5]];portConstraint=eastwest;whiteSpace=wrap;html=1;fontSize=12;fillColor=default;strokeColor=none;fontFamily=Helvetica;fontColor=default;fontStyle=0;horizontal=1;" vertex="1" parent="Oeyfec6gX6lL5wna3G6M-62">
          <mxGeometry y="40" width="870" height="250" as="geometry" />
        </mxCell>
        <mxCell id="Oeyfec6gX6lL5wna3G6M-64" value="&lt;div&gt;&lt;span style=&quot;white-space: pre;&quot;&gt;&#x9;&lt;/span&gt;&lt;span style=&quot;white-space: pre;&quot;&gt;&#x9;&lt;/span&gt;&lt;span style=&quot;white-space: pre;&quot;&gt;&#x9;                    &lt;span style=&quot;white-space: pre;&quot;&gt;&#x9;&lt;/span&gt;&lt;span style=&quot;white-space: pre;&quot;&gt;&#x9;&lt;/span&gt;&lt;span style=&quot;white-space: pre;&quot;&gt;&#x9;&lt;/span&gt;&lt;span style=&quot;white-space: pre;&quot;&gt;&#x9;&lt;/span&gt;&lt;span style=&quot;white-space: pre;&quot;&gt;&#x9;&lt;/span&gt;&lt;span style=&quot;white-space: pre;&quot;&gt;&#x9;&lt;/span&gt;&lt;span style=&quot;white-space: pre;&quot;&gt;&#x9;&lt;/span&gt;&lt;span style=&quot;white-space: pre;&quot;&gt;&#x9;&lt;/span&gt;&lt;span style=&quot;white-space: pre;&quot;&gt;&#x9;&lt;/span&gt;&lt;span style=&quot;white-space: pre;&quot;&gt;&#x9;&lt;/span&gt;&lt;span style=&quot;white-space: pre;&quot;&gt;&#x9;&lt;/span&gt;&lt;span style=&quot;white-space: pre;&quot;&gt;&#x9;&lt;/span&gt;&lt;span style=&quot;white-space: pre;&quot;&gt;&#x9;&lt;/span&gt;&lt;/span&gt;&lt;span style=&quot;white-space: pre;&quot;&gt;tab空格到这里，可以设定宽度&lt;/span&gt;&lt;/div&gt;&lt;div&gt;&lt;span style=&quot;white-space: pre;&quot;&gt;&lt;br&gt;&lt;/span&gt;&lt;/div&gt;&lt;div&gt;&lt;span style=&quot;white-space: pre;&quot;&gt;&lt;br&gt;&lt;/span&gt;&lt;/div&gt;&lt;div style=&quot;min-height: 3rem; padding: 0px 0px 0.5rem 1rem; min-width: 60%; background: rgb(245, 245, 245); border: 0px solid gray; border-radius: 8px;&quot;&gt;&lt;div style=&quot;margin-left: -1rem; color: gray; padding: 1rem; background: rgb(229, 229, 229); border-top-left-radius: inherit; border-top-right-radius: inherit;&quot;&gt; bash&lt;/div&gt;&lt;div style=&quot;background-color: rgb(245, 245, 245); color: rgb(8, 8, 8);&quot;&gt;&lt;pre style=&quot;font-family:&#39;JetBrains Mono&#39;,monospace;font-size:11.3pt;&quot;&gt;&lt;span style=&quot;color: rgb(140, 140, 140); font-style: italic;&quot;&gt;#从idea里复制内容过来&lt;/span&gt;&lt;/pre&gt;&lt;/div&gt;&lt;/div&gt;&lt;div&gt;&amp;nbsp; &amp;nbsp;&lt;/div&gt;&lt;div&gt;&lt;br&gt;&lt;/div&gt;&lt;div&gt;&lt;br&gt;&lt;br&gt;&lt;/div&gt;" style="text;align=left;verticalAlign=top;spacingLeft=16;spacingRight=4;overflow=hidden;rotatable=0;points=[[0,0.5],[1,0.5]];portConstraint=eastwest;whiteSpace=wrap;html=1;fontSize=12;fillColor=default;strokeColor=none;fontFamily=Helvetica;fontColor=default;fontStyle=0;horizontal=1;" vertex="1" parent="Oeyfec6gX6lL5wna3G6M-62">
          <mxGeometry y="290" width="870" height="250" as="geometry" />
        </mxCell>
        <mxCell id="Oeyfec6gX6lL5wna3G6M-65" value="&amp;nbsp; &amp;nbsp; &amp;nbsp; &amp;nbsp; &amp;nbsp;&amp;nbsp;&lt;span style=&quot;white-space: pre;&quot;&gt;&#x9;&lt;/span&gt;&lt;span style=&quot;white-space: pre;&quot;&gt;&#x9;&lt;/span&gt;&lt;span style=&quot;white-space: pre;&quot;&gt;&#x9;&lt;/span&gt;&lt;span style=&quot;white-space: pre;&quot;&gt;&#x9;&lt;/span&gt;&lt;span style=&quot;white-space: pre;&quot;&gt;&#x9;&lt;span style=&quot;white-space: pre;&quot;&gt;&#x9;&lt;/span&gt;&lt;span style=&quot;white-space: pre;&quot;&gt;&#x9;&lt;/span&gt;&lt;/span&gt;&lt;span style=&quot;white-space: pre;&quot;&gt;&#x9;&lt;/span&gt;&lt;span style=&quot;white-space: pre;&quot;&gt;&#x9;&lt;/span&gt;&lt;span style=&quot;white-space: pre;&quot;&gt;&#x9;&lt;/span&gt;&lt;span style=&quot;white-space: pre;&quot;&gt;&#x9;&lt;/span&gt;&lt;span style=&quot;white-space: pre;&quot;&gt;&#x9;&lt;/span&gt;&lt;span style=&quot;white-space: pre;&quot;&gt;&#x9;&lt;/span&gt;&lt;span style=&quot;white-space: pre;&quot;&gt;&#x9;&lt;/span&gt;&lt;span style=&quot;white-space: pre;&quot;&gt;&#x9;&lt;/span&gt;&lt;span style=&quot;white-space: pre;&quot;&gt;&#x9;&lt;/span&gt;&lt;span style=&quot;white-space: pre;&quot;&gt;&#x9;&lt;/span&gt;&lt;span style=&quot;white-space: pre;&quot;&gt;&#x9;&lt;/span&gt;&lt;span style=&quot;white-space: pre;&quot;&gt;    &lt;/span&gt;&lt;span style=&quot;white-space: pre;&quot;&gt;tab空格到这里，可以设定宽度&lt;/span&gt;&lt;hr&gt;&lt;div&gt;&lt;br&gt;&lt;/div&gt;&lt;div&gt;&lt;br&gt;&lt;/div&gt;" style="text;align=left;verticalAlign=top;spacingLeft=16;spacingRight=4;overflow=hidden;rotatable=0;points=[[0,0.5],[1,0.5]];portConstraint=eastwest;whiteSpace=wrap;html=1;fontSize=12;fillColor=default;strokeColor=none;fontFamily=Helvetica;fontColor=default;fontStyle=0;horizontal=1;" vertex="1" parent="Oeyfec6gX6lL5wna3G6M-62">
          <mxGeometry y="540" width="870" height="250" as="geometry" />
        </mxCell>
        <mxCell id="Oeyfec6gX6lL5wna3G6M-66" value="" style="text;align=left;verticalAlign=top;spacingLeft=4;spacingRight=4;overflow=hidden;rotatable=0;portConstraint=eastwest;whiteSpace=wrap;html=1;fillColor=#EEEEEE;strokeColor=none;" vertex="1" parent="Oeyfec6gX6lL5wna3G6M-59">
          <mxGeometry y="940" width="870" height="34" as="geometry" />
        </mxCell>
        <mxCell id="Oeyfec6gX6lL5wna3G6M-69" value="" style="swimlane;startSize=0;horizontal=1;container=0;swimlaneFillColor=default;strokeColor=none;swimlaneLine=0;fillColor=#BAC8D3;strokeWidth=0;align=left;verticalAlign=middle;spacingLeft=24;spacingBottom=0;fontFamily=Helvetica;fontSize=12;fontColor=default;fontStyle=0;" vertex="1" parent="Oeyfec6gX6lL5wna3G6M-59">
          <mxGeometry y="974" width="870" height="252" as="geometry" />
        </mxCell>
        <UserObject label="" mermaidData="{&#xa;  &quot;data&quot;: &quot;graph LR\n    A[访问数据行] --&gt; B{检查当前行}\n    B --&gt;|DB_TRX_ID 是否可见？| C[返回当前版本]\n    B --&gt;|不可见| D[沿 DB_ROLL_PTR 查找旧版本]\n    D --&gt; E{版本是否可见？}\n    E --&gt;|是| F[返回该历史版本]\n    E --&gt;|否| D&quot;&#xa;}" id="Oeyfec6gX6lL5wna3G6M-70">
          <mxCell style="shape=image;noLabel=1;verticalAlign=middle;imageAspect=1;image=data:image/svg+xml,PHN2ZyBhcmlhLXJvbGVkZXNjcmlwdGlvbj0iZmxvd2NoYXJ0LXYyIiByb2xlPSJncmFwaGljcy1kb2N1bWVudCBkb2N1bWVudCIgdmlld0JveD0iMCAwIDEyOTQuMjE2Njc0ODA0Njg3NSAyNDIiIHN0eWxlPSJtYXgtd2lkdGg6IDEyOTQuMjE2Njc0ODA0Njg3NXB4OyIgY2xhc3M9ImZsb3djaGFydCIgeG1sbnM9Imh0dHA6Ly93d3cudzMub3JnLzIwMDAvc3ZnIiB3aWR0aD0iMTAwJSIgaWQ9ImdlTWVybWFpZE91dHB1dC0xNzUzNzA5NDc3NDA5Ij48c3R5bGU+I2dlTWVybWFpZE91dHB1dC0xNzUzNzA5NDc3NDA5e2ZvbnQtZmFtaWx5OiJ0cmVidWNoZXQgbXMiLHZlcmRhbmEsYXJpYWwsc2Fucy1zZXJpZjtmb250LXNpemU6MTZweDtmaWxsOiMwMDAwMDA7fUBrZXlmcmFtZXMgZWRnZS1hbmltYXRpb24tZnJhbWV7ZnJvbXtzdHJva2UtZGFzaG9mZnNldDowO319QGtleWZyYW1lcyBkYXNoe3Rve3N0cm9rZS1kYXNob2Zmc2V0OjA7fX0jZ2VNZXJtYWlkT3V0cHV0LTE3NTM3MDk0Nzc0MDkgLmVkZ2UtYW5pbWF0aW9uLXNsb3d7c3Ryb2tlLWRhc2hhcnJheTo5LDUhaW1wb3J0YW50O3N0cm9rZS1kYXNob2Zmc2V0OjkwMDthbmltYXRpb246ZGFzaCA1MHMgbGluZWFyIGluZmluaXRlO3N0cm9rZS1saW5lY2FwOnJvdW5kO30jZ2VNZXJtYWlkT3V0cHV0LTE3NTM3MDk0Nzc0MDkgLmVkZ2UtYW5pbWF0aW9uLWZhc3R7c3Ryb2tlLWRhc2hhcnJheTo5LDUhaW1wb3J0YW50O3N0cm9rZS1kYXNob2Zmc2V0OjkwMDthbmltYXRpb246ZGFzaCAyMHMgbGluZWFyIGluZmluaXRlO3N0cm9rZS1saW5lY2FwOnJvdW5kO30jZ2VNZXJtYWlkT3V0cHV0LTE3NTM3MDk0Nzc0MDkgLmVycm9yLWljb257ZmlsbDojNTUyMjIyO30jZ2VNZXJtYWlkT3V0cHV0LTE3NTM3MDk0Nzc0MDkgLmVycm9yLXRleHR7ZmlsbDojNTUyMjIyO3N0cm9rZTojNTUyMjIyO30jZ2VNZXJtYWlkT3V0cHV0LTE3NTM3MDk0Nzc0MDkgLmVkZ2UtdGhpY2tuZXNzLW5vcm1hbHtzdHJva2Utd2lkdGg6MXB4O30jZ2VNZXJtYWlkT3V0cHV0LTE3NTM3MDk0Nzc0MDkgLmVkZ2UtdGhpY2tuZXNzLXRoaWNre3N0cm9rZS13aWR0aDozLjVweDt9I2dlTWVybWFpZE91dHB1dC0xNzUzNzA5NDc3NDA5IC5lZGdlLXBhdHRlcm4tc29saWR7c3Ryb2tlLWRhc2hhcnJheTowO30jZ2VNZXJtYWlkT3V0cHV0LTE3NTM3MDk0Nzc0MDkgLmVkZ2UtdGhpY2tuZXNzLWludmlzaWJsZXtzdHJva2Utd2lkdGg6MDtmaWxsOm5vbmU7fSNnZU1lcm1haWRPdXRwdXQtMTc1MzcwOTQ3NzQwOSAuZWRnZS1wYXR0ZXJuLWRhc2hlZHtzdHJva2UtZGFzaGFycmF5OjM7fSNnZU1lcm1haWRPdXRwdXQtMTc1MzcwOTQ3NzQwOSAuZWRnZS1wYXR0ZXJuLWRvdHRlZHtzdHJva2UtZGFzaGFycmF5OjI7fSNnZU1lcm1haWRPdXRwdXQtMTc1MzcwOTQ3NzQwOSAubWFya2Vye2ZpbGw6IzY2NjtzdHJva2U6IzY2Njt9I2dlTWVybWFpZE91dHB1dC0xNzUzNzA5NDc3NDA5IC5tYXJrZXIuY3Jvc3N7c3Ryb2tlOiM2NjY7fSNnZU1lcm1haWRPdXRwdXQtMTc1MzcwOTQ3NzQwOSBzdmd7Zm9udC1mYW1pbHk6InRyZWJ1Y2hldCBtcyIsdmVyZGFuYSxhcmlhbCxzYW5zLXNlcmlmO2ZvbnQtc2l6ZToxNnB4O30jZ2VNZXJtYWlkT3V0cHV0LTE3NTM3MDk0Nzc0MDkgcHttYXJnaW46MDt9I2dlTWVybWFpZE91dHB1dC0xNzUzNzA5NDc3NDA5IC5sYWJlbHtmb250LWZhbWlseToidHJlYnVjaGV0IG1zIix2ZXJkYW5hLGFyaWFsLHNhbnMtc2VyaWY7Y29sb3I6IzAwMDAwMDt9I2dlTWVybWFpZE91dHB1dC0xNzUzNzA5NDc3NDA5IC5jbHVzdGVyLWxhYmVsIHRleHR7ZmlsbDojMzMzO30jZ2VNZXJtYWlkT3V0cHV0LTE3NTM3MDk0Nzc0MDkgLmNsdXN0ZXItbGFiZWwgc3Bhbntjb2xvcjojMzMzO30jZ2VNZXJtYWlkT3V0cHV0LTE3NTM3MDk0Nzc0MDkgLmNsdXN0ZXItbGFiZWwgc3BhbiBwe2JhY2tncm91bmQtY29sb3I6dHJhbnNwYXJlbnQ7fSNnZU1lcm1haWRPdXRwdXQtMTc1MzcwOTQ3NzQwOSAubGFiZWwgdGV4dCwjZ2VNZXJtYWlkT3V0cHV0LTE3NTM3MDk0Nzc0MDkgc3BhbntmaWxsOiMwMDAwMDA7Y29sb3I6IzAwMDAwMDt9I2dlTWVybWFpZE91dHB1dC0xNzUzNzA5NDc3NDA5IC5ub2RlIHJlY3QsI2dlTWVybWFpZE91dHB1dC0xNzUzNzA5NDc3NDA5IC5ub2RlIGNpcmNsZSwjZ2VNZXJtYWlkT3V0cHV0LTE3NTM3MDk0Nzc0MDkgLm5vZGUgZWxsaXBzZSwjZ2VNZXJtYWlkT3V0cHV0LTE3NTM3MDk0Nzc0MDkgLm5vZGUgcG9seWdvbiwjZ2VNZXJtYWlkT3V0cHV0LTE3NTM3MDk0Nzc0MDkgLm5vZGUgcGF0aHtmaWxsOiNlZWU7c3Ryb2tlOiM5OTk7c3Ryb2tlLXdpZHRoOjFweDt9I2dlTWVybWFpZE91dHB1dC0xNzUzNzA5NDc3NDA5IC5yb3VnaC1ub2RlIC5sYWJlbCB0ZXh0LCNnZU1lcm1haWRPdXRwdXQtMTc1MzcwOTQ3NzQwOSAubm9kZSAubGFiZWwgdGV4dCwjZ2VNZXJtYWlkT3V0cHV0LTE3NTM3MDk0Nzc0MDkgLmltYWdlLXNoYXBlIC5sYWJlbCwjZ2VNZXJtYWlkT3V0cHV0LTE3NTM3MDk0Nzc0MDkgLmljb24tc2hhcGUgLmxhYmVse3RleHQtYW5jaG9yOm1pZGRsZTt9I2dlTWVybWFpZE91dHB1dC0xNzUzNzA5NDc3NDA5IC5ub2RlIC5rYXRleCBwYXRoe2ZpbGw6IzAwMDtzdHJva2U6IzAwMDtzdHJva2Utd2lkdGg6MXB4O30jZ2VNZXJtYWlkT3V0cHV0LTE3NTM3MDk0Nzc0MDkgLnJvdWdoLW5vZGUgLmxhYmVsLCNnZU1lcm1haWRPdXRwdXQtMTc1MzcwOTQ3NzQwOSAubm9kZSAubGFiZWwsI2dlTWVybWFpZE91dHB1dC0xNzUzNzA5NDc3NDA5IC5pbWFnZS1zaGFwZSAubGFiZWwsI2dlTWVybWFpZE91dHB1dC0xNzUzNzA5NDc3NDA5IC5pY29uLXNoYXBlIC5sYWJlbHt0ZXh0LWFsaWduOmNlbnRlcjt9I2dlTWVybWFpZE91dHB1dC0xNzUzNzA5NDc3NDA5IC5ub2RlLmNsaWNrYWJsZXtjdXJzb3I6cG9pbnRlcjt9I2dlTWVybWFpZE91dHB1dC0xNzUzNzA5NDc3NDA5IC5yb290IC5hbmNob3IgcGF0aHtmaWxsOiM2NjYhaW1wb3J0YW50O3N0cm9rZS13aWR0aDowO3N0cm9rZTojNjY2O30jZ2VNZXJtYWlkT3V0cHV0LTE3NTM3MDk0Nzc0MDkgLmFycm93aGVhZFBhdGh7ZmlsbDojMzMzMzMzO30jZ2VNZXJtYWlkT3V0cHV0LTE3NTM3MDk0Nzc0MDkgLmVkZ2VQYXRoIC5wYXRoe3N0cm9rZTojNjY2O3N0cm9rZS13aWR0aDoyLjBweDt9I2dlTWVybWFpZE91dHB1dC0xNzUzNzA5NDc3NDA5IC5mbG93Y2hhcnQtbGlua3tzdHJva2U6IzY2NjtmaWxsOm5vbmU7fSNnZU1lcm1haWRPdXRwdXQtMTc1MzcwOTQ3NzQwOSAuZWRnZUxhYmVse2JhY2tncm91bmQtY29sb3I6d2hpdGU7dGV4dC1hbGlnbjpjZW50ZXI7fSNnZU1lcm1haWRPdXRwdXQtMTc1MzcwOTQ3NzQwOSAuZWRnZUxhYmVsIHB7YmFja2dyb3VuZC1jb2xvcjp3aGl0ZTt9I2dlTWVybWFpZE91dHB1dC0xNzUzNzA5NDc3NDA5IC5lZGdlTGFiZWwgcmVjdHtvcGFjaXR5OjAuNTtiYWNrZ3JvdW5kLWNvbG9yOndoaXRlO2ZpbGw6d2hpdGU7fSNnZU1lcm1haWRPdXRwdXQtMTc1MzcwOTQ3NzQwOSAubGFiZWxCa2d7YmFja2dyb3VuZC1jb2xvcjpyZ2JhKDI1NSwgMjU1LCAyNTUsIDAuNSk7fSNnZU1lcm1haWRPdXRwdXQtMTc1MzcwOTQ3NzQwOSAuY2x1c3RlciByZWN0e2ZpbGw6aHNsKDAsIDAlLCA5OC45MjE1Njg2Mjc1JSk7c3Ryb2tlOiM3MDcwNzA7c3Ryb2tlLXdpZHRoOjFweDt9I2dlTWVybWFpZE91dHB1dC0xNzUzNzA5NDc3NDA5IC5jbHVzdGVyIHRleHR7ZmlsbDojMzMzO30jZ2VNZXJtYWlkT3V0cHV0LTE3NTM3MDk0Nzc0MDkgLmNsdXN0ZXIgc3Bhbntjb2xvcjojMzMzO30jZ2VNZXJtYWlkT3V0cHV0LTE3NTM3MDk0Nzc0MDkgZGl2Lm1lcm1haWRUb29sdGlwe3Bvc2l0aW9uOmFic29sdXRlO3RleHQtYWxpZ246Y2VudGVyO21heC13aWR0aDoyMDBweDtwYWRkaW5nOjJweDtmb250LWZhbWlseToidHJlYnVjaGV0IG1zIix2ZXJkYW5hLGFyaWFsLHNhbnMtc2VyaWY7Zm9udC1zaXplOjEycHg7YmFja2dyb3VuZDpoc2woLTE2MCwgMCUsIDkzLjMzMzMzMzMzMzMlKTtib3JkZXI6MXB4IHNvbGlkICM3MDcwNzA7Ym9yZGVyLXJhZGl1czoycHg7cG9pbnRlci1ldmVudHM6bm9uZTt6LWluZGV4OjEwMDt9I2dlTWVybWFpZE91dHB1dC0xNzUzNzA5NDc3NDA5IC5mbG93Y2hhcnRUaXRsZVRleHR7dGV4dC1hbmNob3I6bWlkZGxlO2ZvbnQtc2l6ZToxOHB4O2ZpbGw6IzAwMDAwMDt9I2dlTWVybWFpZE91dHB1dC0xNzUzNzA5NDc3NDA5IHJlY3QudGV4dHtmaWxsOm5vbmU7c3Ryb2tlLXdpZHRoOjA7fSNnZU1lcm1haWRPdXRwdXQtMTc1MzcwOTQ3NzQwOSAuaWNvbi1zaGFwZSwjZ2VNZXJtYWlkT3V0cHV0LTE3NTM3MDk0Nzc0MDkgLmltYWdlLXNoYXBle2JhY2tncm91bmQtY29sb3I6d2hpdGU7dGV4dC1hbGlnbjpjZW50ZXI7fSNnZU1lcm1haWRPdXRwdXQtMTc1MzcwOTQ3NzQwOSAuaWNvbi1zaGFwZSBwLCNnZU1lcm1haWRPdXRwdXQtMTc1MzcwOTQ3NzQwOSAuaW1hZ2Utc2hhcGUgcHtiYWNrZ3JvdW5kLWNvbG9yOndoaXRlO3BhZGRpbmc6MnB4O30jZ2VNZXJtYWlkT3V0cHV0LTE3NTM3MDk0Nzc0MDkgLmljb24tc2hhcGUgcmVjdCwjZ2VNZXJtYWlkT3V0cHV0LTE3NTM3MDk0Nzc0MDkgLmltYWdlLXNoYXBlIHJlY3R7b3BhY2l0eTowLjU7YmFja2dyb3VuZC1jb2xvcjp3aGl0ZTtmaWxsOndoaXRlO30jZ2VNZXJtYWlkT3V0cHV0LTE3NTM3MDk0Nzc0MDkgOnJvb3R7LS1tZXJtYWlkLWZvbnQtZmFtaWx5OiJ0cmVidWNoZXQgbXMiLHZlcmRhbmEsYXJpYWwsc2Fucy1zZXJpZjt9PC9zdHlsZT48Zz48bWFya2VyIG9yaWVudD0iYXV0byIgbWFya2VySGVpZ2h0PSI4IiBtYXJrZXJXaWR0aD0iOCIgbWFya2VyVW5pdHM9InVzZXJTcGFjZU9uVXNlIiByZWZZPSI1IiByZWZYPSI1IiB2aWV3Qm94PSIwIDAgMTAgMTAiIGNsYXNzPSJtYXJrZXIgZmxvd2NoYXJ0LXYyIiBpZD0iZ2VNZXJtYWlkT3V0cHV0LTE3NTM3MDk0Nzc0MDlfZmxvd2NoYXJ0LXYyLXBvaW50RW5kIj48cGF0aCBzdHlsZT0ic3Ryb2tlLXdpZHRoOiAxcHg7IHN0cm9rZS1kYXNoYXJyYXk6IDFweCwgMHB4OyIgY2xhc3M9ImFycm93TWFya2VyUGF0aCIgZD0iTSAwIDAgTCAxMCA1IEwgMCAxMCB6Ij48L3BhdGg+PC9tYXJrZXI+PG1hcmtlciBvcmllbnQ9ImF1dG8iIG1hcmtlckhlaWdodD0iOCIgbWFya2VyV2lkdGg9IjgiIG1hcmtlclVuaXRzPSJ1c2VyU3BhY2VPblVzZSIgcmVmWT0iNSIgcmVmWD0iNC41IiB2aWV3Qm94PSIwIDAgMTAgMTAiIGNsYXNzPSJtYXJrZXIgZmxvd2NoYXJ0LXYyIiBpZD0iZ2VNZXJtYWlkT3V0cHV0LTE3NTM3MDk0Nzc0MDlfZmxvd2NoYXJ0LXYyLXBvaW50U3RhcnQiPjxwYXRoIHN0eWxlPSJzdHJva2Utd2lkdGg6IDFweDsgc3Ryb2tlLWRhc2hhcnJheTogMXB4LCAwcHg7IiBjbGFzcz0iYXJyb3dNYXJrZXJQYXRoIiBkPSJNIDAgNSBMIDEwIDEwIEwgMTAgMCB6Ij48L3BhdGg+PC9tYXJrZXI+PG1hcmtlciBvcmllbnQ9ImF1dG8iIG1hcmtlckhlaWdodD0iMTEiIG1hcmtlcldpZHRoPSIxMSIgbWFya2VyVW5pdHM9InVzZXJTcGFjZU9uVXNlIiByZWZZPSI1IiByZWZYPSIxMSIgdmlld0JveD0iMCAwIDEwIDEwIiBjbGFzcz0ibWFya2VyIGZsb3djaGFydC12MiIgaWQ9ImdlTWVybWFpZE91dHB1dC0xNzUzNzA5NDc3NDA5X2Zsb3djaGFydC12Mi1jaXJjbGVFbmQiPjxjaXJjbGUgc3R5bGU9InN0cm9rZS13aWR0aDogMXB4OyBzdHJva2UtZGFzaGFycmF5OiAxcHgsIDBweDsiIGNsYXNzPSJhcnJvd01hcmtlclBhdGgiIHI9IjUiIGN5PSI1IiBjeD0iNSI+PC9jaXJjbGU+PC9tYXJrZXI+PG1hcmtlciBvcmllbnQ9ImF1dG8iIG1hcmtlckhlaWdodD0iMTEiIG1hcmtlcldpZHRoPSIxMSIgbWFya2VyVW5pdHM9InVzZXJTcGFjZU9uVXNlIiByZWZZPSI1IiByZWZYPSItMSIgdmlld0JveD0iMCAwIDEwIDEwIiBjbGFzcz0ibWFya2VyIGZsb3djaGFydC12MiIgaWQ9ImdlTWVybWFpZE91dHB1dC0xNzUzNzA5NDc3NDA5X2Zsb3djaGFydC12Mi1jaXJjbGVTdGFydCI+PGNpcmNsZSBzdHlsZT0ic3Ryb2tlLXdpZHRoOiAxcHg7IHN0cm9rZS1kYXNoYXJyYXk6IDFweCwgMHB4OyIgY2xhc3M9ImFycm93TWFya2VyUGF0aCIgcj0iNSIgY3k9IjUiIGN4PSI1Ij48L2NpcmNsZT48L21hcmtlcj48bWFya2VyIG9yaWVudD0iYXV0byIgbWFya2VySGVpZ2h0PSIxMSIgbWFya2VyV2lkdGg9IjExIiBtYXJrZXJVbml0cz0idXNlclNwYWNlT25Vc2UiIHJlZlk9IjUuMiIgcmVmWD0iMTIiIHZpZXdCb3g9IjAgMCAxMSAxMSIgY2xhc3M9Im1hcmtlciBjcm9zcyBmbG93Y2hhcnQtdjIiIGlkPSJnZU1lcm1haWRPdXRwdXQtMTc1MzcwOTQ3NzQwOV9mbG93Y2hhcnQtdjItY3Jvc3NFbmQiPjxwYXRoIHN0eWxlPSJzdHJva2Utd2lkdGg6IDJweDsgc3Ryb2tlLWRhc2hhcnJheTogMXB4LCAwcHg7IiBjbGFzcz0iYXJyb3dNYXJrZXJQYXRoIiBkPSJNIDEsMSBsIDksOSBNIDEwLDEgbCAtOSw5Ij48L3BhdGg+PC9tYXJrZXI+PG1hcmtlciBvcmllbnQ9ImF1dG8iIG1hcmtlckhlaWdodD0iMTEiIG1hcmtlcldpZHRoPSIxMSIgbWFya2VyVW5pdHM9InVzZXJTcGFjZU9uVXNlIiByZWZZPSI1LjIiIHJlZlg9Ii0xIiB2aWV3Qm94PSIwIDAgMTEgMTEiIGNsYXNzPSJtYXJrZXIgY3Jvc3MgZmxvd2NoYXJ0LXYyIiBpZD0iZ2VNZXJtYWlkT3V0cHV0LTE3NTM3MDk0Nzc0MDlfZmxvd2NoYXJ0LXYyLWNyb3NzU3RhcnQiPjxwYXRoIHN0eWxlPSJzdHJva2Utd2lkdGg6IDJweDsgc3Ryb2tlLWRhc2hhcnJheTogMXB4LCAwcHg7IiBjbGFzcz0iYXJyb3dNYXJrZXJQYXRoIiBkPSJNIDEsMSBsIDksOSBNIDEwLDEgbCAtOSw5Ij48L3BhdGg+PC9tYXJrZXI+PGcgY2xhc3M9InJvb3QiPjxnIGNsYXNzPSJjbHVzdGVycyI+PC9nPjxnIGNsYXNzPSJlZGdlUGF0aHMiPjxwYXRoIG1hcmtlci1lbmQ9InVybCgjZ2VNZXJtYWlkT3V0cHV0LTE3NTM3MDk0Nzc0MDlfZmxvd2NoYXJ0LXYyLXBvaW50RW5kKSIgc3R5bGU9IiIgY2xhc3M9ImVkZ2UtdGhpY2tuZXNzLW5vcm1hbCBlZGdlLXBhdHRlcm4tc29saWQgZWRnZS10aGlja25lc3Mtbm9ybWFsIGVkZ2UtcGF0dGVybi1zb2xpZCBmbG93Y2hhcnQtbGluayIgaWQ9IkxfQV9CXzAiIGQ9Ik0xNDgsOTNMMTUyLjE2Nyw5M0MxNTYuMzMzLDkzLDE2NC42NjcsOTMsMTcyLjQxNyw5My4wN0MxODAuMTY3LDkzLjE0MSwxODcuMzM0LDkzLjI4MSwxOTAuOTE3LDkzLjM1MUwxOTQuNTAxLDkzLjQyMiI+PC9wYXRoPjxwYXRoIG1hcmtlci1lbmQ9InVybCgjZ2VNZXJtYWlkT3V0cHV0LTE3NTM3MDk0Nzc0MDlfZmxvd2NoYXJ0LXYyLXBvaW50RW5kKSIgc3R5bGU9IiIgY2xhc3M9ImVkZ2UtdGhpY2tuZXNzLW5vcm1hbCBlZGdlLXBhdHRlcm4tc29saWQgZWRnZS10aGlja25lc3Mtbm9ybWFsIGVkZ2UtcGF0dGVybi1zb2xpZCBmbG93Y2hhcnQtbGluayIgaWQ9IkxfQl9DXzAiIGQ9Ik0zMTUuODMsNzYuODNMMzM2LjU0Myw2OS44NThDMzU3LjI1Niw2Mi44ODYsMzk4LjY4Miw0OC45NDMsNDQ1LjQxMyw0MS45NzJDNDkyLjE0NCwzNSw1NDQuMTgxLDM1LDU3MC4xOTksMzVMNTk2LjIxNywzNSI+PC9wYXRoPjxwYXRoIG1hcmtlci1lbmQ9InVybCgjZ2VNZXJtYWlkT3V0cHV0LTE3NTM3MDk0Nzc0MDlfZmxvd2NoYXJ0LXYyLXBvaW50RW5kKSIgc3R5bGU9IiIgY2xhc3M9ImVkZ2UtdGhpY2tuZXNzLW5vcm1hbCBlZGdlLXBhdHRlcm4tc29saWQgZWRnZS10aGlja25lc3Mtbm9ybWFsIGVkZ2UtcGF0dGVybi1zb2xpZCBmbG93Y2hhcnQtbGluayIgaWQ9IkxfQl9EXzAiIGQ9Ik0zMTUuODMsMTEwLjE3TDMzNi41NDMsMTE2Ljk3NUMzNTcuMjU2LDEyMy43OCwzOTguNjgyLDEzNy4zOSw0MzYuNzQ3LDE0NC4xOTVDNDc0LjgxMSwxNTEsNTA5LjUxNCwxNTEsNTI2Ljg2NSwxNTFMNTQ0LjIxNywxNTEiPjwvcGF0aD48cGF0aCBtYXJrZXItZW5kPSJ1cmwoI2dlTWVybWFpZE91dHB1dC0xNzUzNzA5NDc3NDA5X2Zsb3djaGFydC12Mi1wb2ludEVuZCkiIHN0eWxlPSIiIGNsYXNzPSJlZGdlLXRoaWNrbmVzcy1ub3JtYWwgZWRnZS1wYXR0ZXJuLXNvbGlkIGVkZ2UtdGhpY2tuZXNzLW5vcm1hbCBlZGdlLXBhdHRlcm4tc29saWQgZmxvd2NoYXJ0LWxpbmsiIGlkPSJMX0RfRV8wIiBkPSJNODA4LjIxNywxMzcuNjA2TDgxNC4wNSwxMzcuMDA1QzgxOS44ODMsMTM2LjQwNCw4MzEuNTUsMTM1LjIwMiw4NDQuMzgzLDEzNS42NzVDODU3LjIxNiwxMzYuMTQ3LDg3MS4yMTUsMTM4LjI5NCw4NzguMjE1LDEzOS4zNjhMODg1LjIxNSwxNDAuNDQyIj48L3BhdGg+PHBhdGggbWFya2VyLWVuZD0idXJsKCNnZU1lcm1haWRPdXRwdXQtMTc1MzcwOTQ3NzQwOV9mbG93Y2hhcnQtdjItcG9pbnRFbmQpIiBzdHlsZT0iIiBjbGFzcz0iZWRnZS10aGlja25lc3Mtbm9ybWFsIGVkZ2UtcGF0dGVybi1zb2xpZCBlZGdlLXRoaWNrbmVzcy1ub3JtYWwgZWRnZS1wYXR0ZXJuLXNvbGlkIGZsb3djaGFydC1saW5rIiBpZD0iTF9FX0ZfMCIgZD0iTTEwNDQuNzE3LDE1MS41TDEwNTAuNDY3LDE1MS40MTdDMTA1Ni4yMTcsMTUxLjMzMywxMDY3LjcxNywxNTEuMTY3LDEwNzguNjMzLDE1MS4wODNDMTA4OS41NSwxNTEsMTA5OS44ODMsMTUxLDExMDUuMDUsMTUxTDExMTAuMjE3LDE1MSI+PC9wYXRoPjxwYXRoIG1hcmtlci1lbmQ9InVybCgjZ2VNZXJtYWlkT3V0cHV0LTE3NTM3MDk0Nzc0MDlfZmxvd2NoYXJ0LXYyLXBvaW50RW5kKSIgc3R5bGU9IiIgY2xhc3M9ImVkZ2UtdGhpY2tuZXNzLW5vcm1hbCBlZGdlLXBhdHRlcm4tc29saWQgZWRnZS10aGlja25lc3Mtbm9ybWFsIGVkZ2UtcGF0dGVybi1zb2xpZCBmbG93Y2hhcnQtbGluayIgaWQ9IkxfRV9EXzAiIGQ9Ik04ODkuMTY5LDE2MS45NTJMODgxLjUxLDE2Mi45NkM4NzMuODUxLDE2My45NjgsODU4LjUzNCwxNjUuOTg0LDg0NS43MDUsMTY2LjQ1OUM4MzIuODc2LDE2Ni45MzUsODIyLjUzNiwxNjUuODY5LDgxNy4zNjYsMTY1LjMzN0w4MTIuMTk2LDE2NC44MDQiPjwvcGF0aD48L2c+PGcgY2xhc3M9ImVkZ2VMYWJlbHMiPjxnPjxyZWN0IHN0eWxlPSJzdHJva2U6IG5vbmUiIGNsYXNzPSJiYWNrZ3JvdW5kIj48L3JlY3Q+PC9nPjxnPjxyZWN0IHN0eWxlPSJzdHJva2U6IG5vbmUiIGNsYXNzPSJiYWNrZ3JvdW5kIj48L3JlY3Q+PC9nPjxnIGNsYXNzPSJlZGdlTGFiZWwiPjxnIHRyYW5zZm9ybT0idHJhbnNsYXRlKDAsIDApIiBjbGFzcz0ibGFiZWwiPjx0ZXh0IHk9Ii0xMC4xIj48dHNwYW4gZHk9IjEuMWVtIiB5PSItMC4xZW0iIHg9IjAiIGNsYXNzPSJ0ZXh0LW91dGVyLXRzcGFuIj48L3RzcGFuPjwvdGV4dD48L2c+PC9nPjxnIHRyYW5zZm9ybT0idHJhbnNsYXRlKDQ0MC4xMDgzMzc0MDIzNDM3NSwgMzUpIiBjbGFzcz0iZWRnZUxhYmVsIj48ZyB0cmFuc2Zvcm09InRyYW5zbGF0ZSgtODMuMTA4MzM3NDAyMzQzNzUsIC0xNCkiIGNsYXNzPSJsYWJlbCI+PGc+PHJlY3QgaGVpZ2h0PSIyOCIgd2lkdGg9IjE2Ni4yMTY2NzQ4MDQ2ODc1IiB5PSItNC45OTk5OTk1MjMxNjI4NDIiIHg9Ii0yIiBzdHlsZT0iIiBjbGFzcz0iYmFja2dyb3VuZCI+PC9yZWN0Pjx0ZXh0IHN0eWxlPSIiIHk9Ii0xMC4xIj48dHNwYW4gZHk9IjEuMWVtIiB5PSItMC4xZW0iIHg9IjAiIGNsYXNzPSJ0ZXh0LW91dGVyLXRzcGFuIj48dHNwYW4gZm9udC13ZWlnaHQ9Im5vcm1hbCIgY2xhc3M9InRleHQtaW5uZXItdHNwYW4iIGZvbnQtc3R5bGU9Im5vcm1hbCI+REJfVFJYX0lEPC90c3Bhbj48dHNwYW4gZm9udC13ZWlnaHQ9Im5vcm1hbCIgY2xhc3M9InRleHQtaW5uZXItdHNwYW4iIGZvbnQtc3R5bGU9Im5vcm1hbCI+IOaYr+WQpuWPr+inge+8nzwvdHNwYW4+PC90c3Bhbj48L3RleHQ+PC9nPjwvZz48L2c+PGcgdHJhbnNmb3JtPSJ0cmFuc2xhdGUoNDQwLjEwODMzNzQwMjM0Mzc1LCAxNTEpIiBjbGFzcz0iZWRnZUxhYmVsIj48ZyB0cmFuc2Zvcm09InRyYW5zbGF0ZSgtMjYsIC0xNCkiIGNsYXNzPSJsYWJlbCI+PGc+PHJlY3QgaGVpZ2h0PSIyOCIgd2lkdGg9IjUyIiB5PSItNC45OTk5OTk1MjMxNjI4NDIiIHg9Ii0yIiBzdHlsZT0iIiBjbGFzcz0iYmFja2dyb3VuZCI+PC9yZWN0Pjx0ZXh0IHN0eWxlPSIiIHk9Ii0xMC4xIj48dHNwYW4gZHk9IjEuMWVtIiB5PSItMC4xZW0iIHg9IjAiIGNsYXNzPSJ0ZXh0LW91dGVyLXRzcGFuIj48dHNwYW4gZm9udC13ZWlnaHQ9Im5vcm1hbCIgY2xhc3M9InRleHQtaW5uZXItdHNwYW4iIGZvbnQtc3R5bGU9Im5vcm1hbCI+5LiN5Y+v6KeBPC90c3Bhbj48L3RzcGFuPjwvdGV4dD48L2c+PC9nPjwvZz48ZyBjbGFzcz0iZWRnZUxhYmVsIj48ZyB0cmFuc2Zvcm09InRyYW5zbGF0ZSgwLCAwKSIgY2xhc3M9ImxhYmVsIj48dGV4dCB5PSItMTAuMSI+PHRzcGFuIGR5PSIxLjFlbSIgeT0iLTAuMWVtIiB4PSIwIiBjbGFzcz0idGV4dC1vdXRlci10c3BhbiI+PC90c3Bhbj48L3RleHQ+PC9nPjwvZz48ZyB0cmFuc2Zvcm09InRyYW5zbGF0ZSgxMDc5LjIxNjY3NDgwNDY4NzUsIDE1MSkiIGNsYXNzPSJlZGdlTGFiZWwiPjxnIHRyYW5zZm9ybT0idHJhbnNsYXRlKC0xMCwgLTE0KSIgY2xhc3M9ImxhYmVsIj48Zz48cmVjdCBoZWlnaHQ9IjI4IiB3aWR0aD0iMjAiIHk9Ii00Ljk5OTk5OTUyMzE2Mjg0MiIgeD0iLTIiIHN0eWxlPSIiIGNsYXNzPSJiYWNrZ3JvdW5kIj48L3JlY3Q+PHRleHQgc3R5bGU9IiIgeT0iLTEwLjEiPjx0c3BhbiBkeT0iMS4xZW0iIHk9Ii0wLjFlbSIgeD0iMCIgY2xhc3M9InRleHQtb3V0ZXItdHNwYW4iPjx0c3BhbiBmb250LXdlaWdodD0ibm9ybWFsIiBjbGFzcz0idGV4dC1pbm5lci10c3BhbiIgZm9udC1zdHlsZT0ibm9ybWFsIj7mmK88L3RzcGFuPjwvdHNwYW4+PC90ZXh0PjwvZz48L2c+PC9nPjxnIHRyYW5zZm9ybT0idHJhbnNsYXRlKDg0My4yMTY2NzQ4MDQ2ODc1LCAxNjgpIiBjbGFzcz0iZWRnZUxhYmVsIj48ZyB0cmFuc2Zvcm09InRyYW5zbGF0ZSgtMTAsIC0xNCkiIGNsYXNzPSJsYWJlbCI+PGc+PHJlY3QgaGVpZ2h0PSIyOCIgd2lkdGg9IjIwIiB5PSItNC45OTk5OTk1MjMxNjI4NDIiIHg9Ii0yIiBzdHlsZT0iIiBjbGFzcz0iYmFja2dyb3VuZCI+PC9yZWN0Pjx0ZXh0IHN0eWxlPSIiIHk9Ii0xMC4xIj48dHNwYW4gZHk9IjEuMWVtIiB5PSItMC4xZW0iIHg9IjAiIGNsYXNzPSJ0ZXh0LW91dGVyLXRzcGFuIj48dHNwYW4gZm9udC13ZWlnaHQ9Im5vcm1hbCIgY2xhc3M9InRleHQtaW5uZXItdHNwYW4iIGZvbnQtc3R5bGU9Im5vcm1hbCI+5ZCmPC90c3Bhbj48L3RzcGFuPjwvdGV4dD48L2c+PC9nPjwvZz48L2c+PGcgY2xhc3M9Im5vZGVzIj48ZyB0cmFuc2Zvcm09InRyYW5zbGF0ZSg3OCwgOTMpIiBpZD0iZmxvd2NoYXJ0LUEtMCIgY2xhc3M9Im5vZGUgZGVmYXVsdCI+PHJlY3QgaGVpZ2h0PSI1NCIgd2lkdGg9IjE0MCIgeT0iLTI3IiB4PSItNzAiIHN0eWxlPSIiIGNsYXNzPSJiYXNpYyBsYWJlbC1jb250YWluZXIiPjwvcmVjdD48ZyB0cmFuc2Zvcm09InRyYW5zbGF0ZSgtNDAsIC0xMikiIHN0eWxlPSIiIGNsYXNzPSJsYWJlbCI+PHJlY3Q+PC9yZWN0Pjxmb3JlaWduT2JqZWN0IGhlaWdodD0iMjQiIHdpZHRoPSI4MCI+PGRpdiB4bWxucz0iaHR0cDovL3d3dy53My5vcmcvMTk5OS94aHRtbCIgc3R5bGU9ImRpc3BsYXk6IHRhYmxlLWNlbGw7IHdoaXRlLXNwYWNlOiBub3dyYXA7IGxpbmUtaGVpZ2h0OiAxLjU7IG1heC13aWR0aDogMjAwcHg7IHRleHQtYWxpZ246IGNlbnRlcjsiPjxzcGFuIGNsYXNzPSJub2RlTGFiZWwiPjxwPuiuv+mXruaVsOaNruihjDwvcD48L3NwYW4+PC9kaXY+PC9mb3JlaWduT2JqZWN0PjwvZz48L2c+PGcgdHJhbnNmb3JtPSJ0cmFuc2xhdGUoMjY1LCA5MykiIGlkPSJmbG93Y2hhcnQtQi0xIiBjbGFzcz0ibm9kZSBkZWZhdWx0Ij48cG9seWdvbiB0cmFuc2Zvcm09InRyYW5zbGF0ZSgtNjcsNjcpIiBjbGFzcz0ibGFiZWwtY29udGFpbmVyIiBwb2ludHM9IjY3LDAgMTM0LC02NyA2NywtMTM0IDAsLTY3Ij48L3BvbHlnb24+PGcgdHJhbnNmb3JtPSJ0cmFuc2xhdGUoLTQwLCAtMTIpIiBzdHlsZT0iIiBjbGFzcz0ibGFiZWwiPjxyZWN0PjwvcmVjdD48Zm9yZWlnbk9iamVjdCBoZWlnaHQ9IjI0IiB3aWR0aD0iODAiPjxkaXYgeG1sbnM9Imh0dHA6Ly93d3cudzMub3JnLzE5OTkveGh0bWwiIHN0eWxlPSJkaXNwbGF5OiB0YWJsZS1jZWxsOyB3aGl0ZS1zcGFjZTogbm93cmFwOyBsaW5lLWhlaWdodDogMS41OyBtYXgtd2lkdGg6IDIwMHB4OyB0ZXh0LWFsaWduOiBjZW50ZXI7Ij48c3BhbiBjbGFzcz0ibm9kZUxhYmVsIj48cD7mo4Dmn6XlvZPliY3ooYw8L3A+PC9zcGFuPjwvZGl2PjwvZm9yZWlnbk9iamVjdD48L2c+PC9nPjxnIHRyYW5zZm9ybT0idHJhbnNsYXRlKDY3OC4yMTY2NzQ4MDQ2ODc1LCAzNSkiIGlkPSJmbG93Y2hhcnQtQy0zIiBjbGFzcz0ibm9kZSBkZWZhdWx0Ij48cmVjdCBoZWlnaHQ9IjU0IiB3aWR0aD0iMTU2IiB5PSItMjciIHg9Ii03OCIgc3R5bGU9IiIgY2xhc3M9ImJhc2ljIGxhYmVsLWNvbnRhaW5lciI+PC9yZWN0PjxnIHRyYW5zZm9ybT0idHJhbnNsYXRlKC00OCwgLTEyKSIgc3R5bGU9IiIgY2xhc3M9ImxhYmVsIj48cmVjdD48L3JlY3Q+PGZvcmVpZ25PYmplY3QgaGVpZ2h0PSIyNCIgd2lkdGg9Ijk2Ij48ZGl2IHhtbG5zPSJodHRwOi8vd3d3LnczLm9yZy8xOTk5L3hodG1sIiBzdHlsZT0iZGlzcGxheTogdGFibGUtY2VsbDsgd2hpdGUtc3BhY2U6IG5vd3JhcDsgbGluZS1oZWlnaHQ6IDEuNTsgbWF4LXdpZHRoOiAyMDBweDsgdGV4dC1hbGlnbjogY2VudGVyOyI+PHNwYW4gY2xhc3M9Im5vZGVMYWJlbCI+PHA+6L+U5Zue5b2T5YmN54mI5pysPC9wPjwvc3Bhbj48L2Rpdj48L2ZvcmVpZ25PYmplY3Q+PC9nPjwvZz48ZyB0cmFuc2Zvcm09InRyYW5zbGF0ZSg2NzguMjE2Njc0ODA0Njg3NSwgMTUxKSIgaWQ9ImZsb3djaGFydC1ELTUiIGNsYXNzPSJub2RlIGRlZmF1bHQiPjxyZWN0IGhlaWdodD0iNzgiIHdpZHRoPSIyNjAiIHk9Ii0zOSIgeD0iLTEzMCIgc3R5bGU9IiIgY2xhc3M9ImJhc2ljIGxhYmVsLWNvbnRhaW5lciI+PC9yZWN0PjxnIHRyYW5zZm9ybT0idHJhbnNsYXRlKC0xMDAsIC0yNCkiIHN0eWxlPSIiIGNsYXNzPSJsYWJlbCI+PHJlY3Q+PC9yZWN0Pjxmb3JlaWduT2JqZWN0IGhlaWdodD0iNDgiIHdpZHRoPSIyMDAiPjxkaXYgeG1sbnM9Imh0dHA6Ly93d3cudzMub3JnLzE5OTkveGh0bWwiIHN0eWxlPSJkaXNwbGF5OiB0YWJsZTsgd2hpdGUtc3BhY2U6IGJyZWFrLXNwYWNlczsgbGluZS1oZWlnaHQ6IDEuNTsgbWF4LXdpZHRoOiAyMDBweDsgdGV4dC1hbGlnbjogY2VudGVyOyB3aWR0aDogMjAwcHg7Ij48c3BhbiBjbGFzcz0ibm9kZUxhYmVsIj48cD7msr8gREJfUk9MTF9QVFIg5p+l5om+5pen54mI5pysPC9wPjwvc3Bhbj48L2Rpdj48L2ZvcmVpZ25PYmplY3Q+PC9nPjwvZz48ZyB0cmFuc2Zvcm09InRyYW5zbGF0ZSg5NjEuMjE2Njc0ODA0Njg3NSwgMTUxKSIgaWQ9ImZsb3djaGFydC1FLTciIGNsYXNzPSJub2RlIGRlZmF1bHQiPjxwb2x5Z29uIHRyYW5zZm9ybT0idHJhbnNsYXRlKC04Myw4MykiIGNsYXNzPSJsYWJlbC1jb250YWluZXIiIHBvaW50cz0iODMsMCAxNjYsLTgzIDgzLC0xNjYgMCwtODMiPjwvcG9seWdvbj48ZyB0cmFuc2Zvcm09InRyYW5zbGF0ZSgtNTYsIC0xMikiIHN0eWxlPSIiIGNsYXNzPSJsYWJlbCI+PHJlY3Q+PC9yZWN0Pjxmb3JlaWduT2JqZWN0IGhlaWdodD0iMjQiIHdpZHRoPSIxMTIiPjxkaXYgeG1sbnM9Imh0dHA6Ly93d3cudzMub3JnLzE5OTkveGh0bWwiIHN0eWxlPSJkaXNwbGF5OiB0YWJsZS1jZWxsOyB3aGl0ZS1zcGFjZTogbm93cmFwOyBsaW5lLWhlaWdodDogMS41OyBtYXgtd2lkdGg6IDIwMHB4OyB0ZXh0LWFsaWduOiBjZW50ZXI7Ij48c3BhbiBjbGFzcz0ibm9kZUxhYmVsIj48cD7niYjmnKzmmK/lkKblj6/op4HvvJ88L3A+PC9zcGFuPjwvZGl2PjwvZm9yZWlnbk9iamVjdD48L2c+PC9nPjxnIHRyYW5zZm9ybT0idHJhbnNsYXRlKDEyMDAuMjE2Njc0ODA0Njg3NSwgMTUxKSIgaWQ9ImZsb3djaGFydC1GLTkiIGNsYXNzPSJub2RlIGRlZmF1bHQiPjxyZWN0IGhlaWdodD0iNTQiIHdpZHRoPSIxNzIiIHk9Ii0yNyIgeD0iLTg2IiBzdHlsZT0iIiBjbGFzcz0iYmFzaWMgbGFiZWwtY29udGFpbmVyIj48L3JlY3Q+PGcgdHJhbnNmb3JtPSJ0cmFuc2xhdGUoLTU2LCAtMTIpIiBzdHlsZT0iIiBjbGFzcz0ibGFiZWwiPjxyZWN0PjwvcmVjdD48Zm9yZWlnbk9iamVjdCBoZWlnaHQ9IjI0IiB3aWR0aD0iMTEyIj48ZGl2IHhtbG5zPSJodHRwOi8vd3d3LnczLm9yZy8xOTk5L3hodG1sIiBzdHlsZT0iZGlzcGxheTogdGFibGUtY2VsbDsgd2hpdGUtc3BhY2U6IG5vd3JhcDsgbGluZS1oZWlnaHQ6IDEuNTsgbWF4LXdpZHRoOiAyMDBweDsgdGV4dC1hbGlnbjogY2VudGVyOyI+PHNwYW4gY2xhc3M9Im5vZGVMYWJlbCI+PHA+6L+U5Zue6K+l5Y6G5Y+y54mI5pysPC9wPjwvc3Bhbj48L2Rpdj48L2ZvcmVpZ25PYmplY3Q+PC9nPjwvZz48L2c+PC9nPjwvZz48L3N2Zz4=;align=left;spacingLeft=24;spacingBottom=0;fontFamily=Helvetica;fontSize=12;fontColor=default;fontStyle=0;horizontal=1;fillColor=#BAC8D3;" vertex="1" parent="Oeyfec6gX6lL5wna3G6M-69">
            <mxGeometry x="44" y="10" width="780" height="230" as="geometry" />
          </mxCell>
        </UserObject>
        <mxCell id="Oeyfec6gX6lL5wna3G6M-67" value="" style="text;align=left;verticalAlign=top;spacingLeft=16;spacingRight=4;overflow=hidden;rotatable=0;points=[[0,0.5],[1,0.5]];portConstraint=eastwest;whiteSpace=wrap;html=1;fontSize=14;fillColor=default;strokeColor=none;" vertex="1" parent="Oeyfec6gX6lL5wna3G6M-59">
          <mxGeometry y="1226" width="870" height="146" as="geometry" />
        </mxCell>
        <mxCell id="Oeyfec6gX6lL5wna3G6M-68" value="&lt;div&gt;&lt;strong&gt;核心要点总结&lt;/strong&gt;&lt;/div&gt;&lt;div&gt;&lt;strong&gt;&lt;br&gt;&lt;/strong&gt;&lt;/div&gt;&lt;div&gt;&lt;br/&gt;&lt;/div&gt;" style="text;align=left;verticalAlign=top;spacingLeft=16;spacingRight=4;overflow=hidden;rotatable=0;points=[[0,0.5],[1,0.5]];portConstraint=eastwest;whiteSpace=wrap;html=1;fontSize=14;fillColor=default;strokeColor=none;" vertex="1" parent="Oeyfec6gX6lL5wna3G6M-59">
          <mxGeometry y="1372" width="870" height="160" as="geometry" />
        </mxCell>
      </root>
    </mxGraphModel>
  </diagram>
</mxfile>
